<svg width="43" height="43" viewBox="0 0 43 43" fill="none" xmlns="http://www.w3.org/2000/svg">
<path d="M42.5 21.579C42.5 32.163 34.7295 40.9223 24.6053 42.428V28.6735H29.9214H30.3382L30.4132 28.2635L31.6198 21.669L31.7277 21.079H31.1279H24.6053V19.2467C24.6053 17.5507 24.9403 16.5127 25.5782 15.8834C26.2178 15.2524 27.2735 14.9217 28.9926 14.9217C30.0864 14.9217 30.9449 14.9487 31.4238 14.9992L31.9762 15.0574V14.5019V8.52456V8.14471L31.6103 8.04287C30.5922 7.75954 28.194 7.48854 26.8022 7.48854C23.1399 7.48854 20.3594 8.35594 18.5022 10.2596C16.6475 12.1607 15.8061 15.0009 15.8061 18.7375V21.079H11.8729H11.3729V21.579V28.1735V28.6735H11.8729H15.8061V41.8726C6.97597 39.3812 0.5 31.2397 0.5 21.579C0.5 9.93574 9.90367 0.5 21.4996 0.5C33.0955 0.5 42.4992 9.93574 42.5 21.579Z" fill="#797979" stroke="#797979"/>
</svg>
