<svg xmlns="http://www.w3.org/2000/svg" width="24" height="25" viewBox="0 0 24 25" fill="none">
<g clip-path="url(#clip0_881_76434)">
<path d="M4.25 0.500002H19.75C20.3083 0.499462 20.8612 0.611842 21.377 0.83071C21.8929 1.04958 22.3616 1.37064 22.7564 1.77551C23.1511 2.18039 23.4642 2.66113 23.6776 3.19023C23.891 3.71933 24.0005 4.2864 24 4.85898V20.141C24.0005 20.7136 23.891 21.2807 23.6776 21.8098C23.4642 22.3389 23.1511 22.8196 22.7564 23.2245C22.3616 23.6294 21.8929 23.9504 21.377 24.1693C20.8612 24.3882 20.3083 24.5005 19.75 24.5H4.25C3.69174 24.5005 3.13885 24.3882 2.62297 24.1693C2.1071 23.9504 1.63838 23.6294 1.24362 23.2245C0.848871 22.8196 0.535838 22.3389 0.322442 21.8098C0.109046 21.2807 -0.000524284 20.7136 1.88608e-06 20.141V4.85898C-0.000524284 4.2864 0.109046 3.71933 0.322442 3.19023C0.535838 2.66113 0.848871 2.18039 1.24362 1.77551C1.63838 1.37064 2.1071 1.04958 2.62297 0.83071C3.13885 0.611842 3.69174 0.499462 4.25 0.500002Z" fill="#000B1D"/>
<path d="M9.5 20.1946C10.8807 20.1946 12 19.0466 12 17.6305V15.0664H9.5C8.11929 15.0664 7 16.2144 7 17.6305C7 19.0466 8.11929 20.1946 9.5 20.1946Z" fill="#0ACF83"/>
<path d="M7 12.5016C7 11.0855 8.11929 9.9375 9.5 9.9375H12V15.0657H9.5C8.11929 15.0657 7 13.9177 7 12.5016Z" fill="#A259FF"/>
<path d="M7 7.3727C7 5.95658 8.11929 4.80859 9.5 4.80859H12V9.9368H9.5C8.11929 9.9368 7 8.78881 7 7.3727Z" fill="#F24E1E"/>
<path d="M12 4.80859H14.5C15.8807 4.80859 17 5.95658 17 7.3727C17 8.78881 15.8807 9.9368 14.5 9.9368H12V4.80859Z" fill="#FF7262"/>
<path d="M17 12.5016C17 13.9177 15.8807 15.0657 14.5 15.0657C13.1193 15.0657 12 13.9177 12 12.5016C12 11.0855 13.1193 9.9375 14.5 9.9375C15.8807 9.9375 17 11.0855 17 12.5016Z" fill="#1ABCFE"/>
</g>
<defs>
<clipPath id="clip0_881_76434">
<rect width="24" height="24" fill="white" transform="translate(0 0.5)"/>
</clipPath>
</defs>
</svg>