<svg xmlns="http://www.w3.org/2000/svg" width="24" height="25" viewBox="0 0 24 25" fill="none">
  <path d="M4.25 0.500002H19.75C20.3083 0.499462 20.8612 0.611842 21.377 0.83071C21.8929 1.04958 22.3616 1.37064 22.7564 1.77551C23.1511 2.18039 23.4642 2.66113 23.6776 3.19023C23.891 3.71933 24.0005 4.2864 24 4.85898V20.141C24.0005 20.7136 23.891 21.2807 23.6776 21.8098C23.4642 22.3389 23.1511 22.8196 22.7564 23.2245C22.3616 23.6294 21.8929 23.9504 21.377 24.1693C20.8612 24.3882 20.3083 24.5005 19.75 24.5H4.25C3.69174 24.5005 3.13885 24.3882 2.62297 24.1693C2.1071 23.9504 1.63838 23.6294 1.24362 23.2245C0.848871 22.8196 0.535838 22.3389 0.322442 21.8098C0.109046 21.2807 -0.000524284 20.7136 1.88608e-06 20.141V4.85898C-0.000524284 4.2864 0.109046 3.71933 0.322442 3.19023C0.535838 2.66113 0.848871 2.18039 1.24362 1.77551C1.63838 1.37064 2.1071 1.04958 2.62297 0.83071C3.13885 0.611842 3.69174 0.499462 4.25 0.500002Z" fill="#330000"/>
  <path d="M11.6299 14.9009H7.90994L7.14994 17.3112C7.14145 17.3551 7.11725 17.3942 7.08209 17.4208C7.04694 17.4474 7.00337 17.4595 6.95994 17.4548H5.07994C4.96994 17.4548 4.93994 17.3932 4.96994 17.2702L8.18994 7.76248C8.21994 7.65992 8.24994 7.5471 8.28994 7.42402C8.33019 7.2042 8.35027 6.98101 8.34994 6.75735C8.34694 6.73166 8.35352 6.70577 8.36836 6.68484C8.38319 6.66392 8.40519 6.64952 8.42994 6.64453H11.0199C11.0999 6.64453 11.1399 6.6753 11.1499 6.72658L14.7999 17.2907C14.8299 17.4035 14.7999 17.4548 14.6999 17.4548H12.6099C12.5746 17.4583 12.5392 17.4489 12.5099 17.4283C12.4807 17.4076 12.4594 17.3771 12.4499 17.342L11.6299 14.9009ZM8.48994 12.8189H11.0299C10.9699 12.6035 10.8899 12.3471 10.7999 12.0804C10.7099 11.8138 10.6199 11.5061 10.5299 11.1984C10.4399 10.8907 10.3399 10.5727 10.2399 10.2548C10.1399 9.93684 10.0499 9.6394 9.96994 9.34197C9.88994 9.04453 9.81994 8.78812 9.74994 8.54197H9.72994C9.64007 8.98899 9.52657 9.43066 9.38994 9.86504C9.23994 10.3574 9.08994 10.8702 8.92994 11.383C8.78994 11.9061 8.63994 12.3881 8.48994 12.8189Z" fill="#FF9A00"/>
  <path d="M16.9808 8.39862C16.8166 8.4023 16.6534 8.37246 16.5006 8.31083C16.3478 8.2492 16.2085 8.15702 16.0907 8.03964C15.8616 7.78271 15.7396 7.44405 15.7508 7.09605C15.7448 6.9265 15.7739 6.75757 15.8359 6.60029C15.8979 6.443 15.9916 6.3009 16.1108 6.18323C16.3511 5.95022 16.67 5.82159 17.0008 5.82426C17.3908 5.82426 17.6908 5.94734 17.9108 6.18323C18.1323 6.43193 18.2507 6.75935 18.2408 7.09605C18.2468 7.26934 18.219 7.44213 18.1589 7.6042C18.0988 7.76627 18.0076 7.91433 17.8907 8.03964C17.7729 8.16274 17.6307 8.25849 17.4737 8.32041C17.3167 8.38234 17.1486 8.40901 16.9808 8.39862ZM15.8608 17.3012V9.40375C15.8608 9.30118 15.9007 9.26016 15.9907 9.26016H17.9708C18.0608 9.26016 18.1008 9.31144 18.1008 9.40375V17.3012C18.1008 17.414 18.0608 17.4653 17.9708 17.4653H16.0108C15.9897 17.4671 15.9686 17.4639 15.9489 17.4562C15.9292 17.4484 15.9115 17.4362 15.8971 17.4204C15.8827 17.4046 15.8719 17.3857 15.8656 17.3651C15.8593 17.3444 15.8577 17.3226 15.8608 17.3012Z" fill="#FF9A00"/>
</svg>