<svg xmlns="http://www.w3.org/2000/svg" width="24" height="25" viewBox="0 0 24 25" fill="none">
  <path d="M4.25 0.500002H19.75C20.3083 0.499462 20.8612 0.611842 21.377 0.83071C21.8929 1.04958 22.3616 1.37064 22.7564 1.77551C23.1511 2.18039 23.4642 2.66113 23.6776 3.19023C23.891 3.71933 24.0005 4.2864 24 4.85898V20.141C24.0005 20.7136 23.891 21.2807 23.6776 21.8098C23.4642 22.3389 23.1511 22.8196 22.7564 23.2245C22.3616 23.6294 21.8929 23.9504 21.377 24.1693C20.8612 24.3882 20.3083 24.5005 19.75 24.5H4.25C3.69174 24.5005 3.13885 24.3882 2.62298 24.1693C2.1071 23.9504 1.63838 23.6294 1.24362 23.2245C0.848871 22.8196 0.535838 22.3389 0.322442 21.8098C0.109046 21.2807 -0.000524284 20.7136 1.88608e-06 20.141V4.85898C-0.000524284 4.2864 0.109046 3.71933 0.322442 3.19023C0.535838 2.66113 0.848871 2.18039 1.24362 1.77551C1.63838 1.37064 2.1071 1.04958 2.62298 0.83071C3.13885 0.611842 3.69174 0.499462 4.25 0.500002V0.500002Z" fill="#001E36"/>
  <path d="M5.40039 17.3298V6.77592C5.40039 6.70413 5.43039 6.6631 5.50039 6.6631C5.67039 6.6631 5.83039 6.6631 6.06039 6.65284C6.29039 6.64259 6.55039 6.64259 6.82039 6.63233C7.09039 6.62208 7.38039 6.62208 7.69039 6.61182C8.00039 6.60156 8.30039 6.60156 8.60039 6.60156C9.42039 6.60156 10.1004 6.70413 10.6604 6.91951C11.1624 7.09436 11.6201 7.38165 12.0004 7.76054C12.3226 8.09211 12.5716 8.49086 12.7304 8.92977C12.8818 9.3572 12.9596 9.80835 12.9604 10.2631C12.9604 11.1452 12.7604 11.8734 12.3604 12.4477C11.9585 13.0213 11.3975 13.4573 10.7504 13.699C10.0704 13.9554 9.32039 14.0477 8.50039 14.0477C8.26039 14.0477 8.10039 14.0477 8.00039 14.0375C7.90039 14.0272 7.76039 14.0272 7.57039 14.0272V17.3195C7.57262 17.3364 7.57153 17.3536 7.56717 17.37C7.56281 17.3864 7.55528 17.4018 7.54502 17.4152C7.53476 17.4286 7.52198 17.4397 7.50745 17.4479C7.49291 17.4562 7.47691 17.4613 7.46039 17.4631H5.52039C5.44039 17.4631 5.40039 17.4221 5.40039 17.3298ZM7.58039 8.64259V12.0887C7.72039 12.099 7.85039 12.1093 7.97039 12.1093H8.50039C8.89078 12.1097 9.27882 12.0474 9.65039 11.9246C9.96918 11.8285 10.254 11.6397 10.4704 11.381C10.6804 11.1246 10.7804 10.7759 10.7804 10.3246C10.7898 10.0041 10.71 9.68752 10.5504 9.41182C10.3837 9.14552 10.1384 8.94072 9.85039 8.8272C9.47498 8.6764 9.07329 8.60657 8.67039 8.62208C8.41039 8.62208 8.18039 8.62208 7.99039 8.63233C7.8537 8.62317 7.71648 8.6266 7.58039 8.64259V8.64259Z" fill="#31A8FF"/>
  <path d="M19.1996 11.4625C18.8977 11.2994 18.5743 11.1819 18.2396 11.1138C17.872 11.0284 17.4965 10.9837 17.1196 10.9804C16.9172 10.9733 16.715 10.9975 16.5196 11.0522C16.3951 11.0788 16.2846 11.1519 16.2096 11.2574C16.1591 11.3406 16.1314 11.4363 16.1296 11.5343C16.1343 11.6318 16.1693 11.7253 16.2296 11.8009C16.3244 11.915 16.4399 12.009 16.5696 12.0779C16.7996 12.2009 17.0396 12.3138 17.2796 12.4163C17.8199 12.6029 18.3368 12.8542 18.8196 13.165C19.148 13.3768 19.4196 13.6695 19.6096 14.0163C19.7703 14.3435 19.8493 14.7065 19.8396 15.0727C19.8477 15.5575 19.7117 16.0333 19.4496 16.4368C19.1707 16.8463 18.7815 17.1635 18.3296 17.3497C17.8396 17.565 17.2396 17.6779 16.5196 17.6779C16.0631 17.6798 15.6075 17.6351 15.1596 17.5445C14.8069 17.482 14.4639 17.3717 14.1396 17.2163C14.1047 17.1984 14.0758 17.1704 14.0562 17.1358C14.0367 17.1011 14.0274 17.0614 14.0296 17.0215V15.2368C14.0287 15.2193 14.0319 15.2018 14.0389 15.1858C14.0458 15.1697 14.0563 15.1556 14.0696 15.1445C14.0837 15.1361 14.1001 15.1326 14.1163 15.1344C14.1325 15.1363 14.1477 15.1434 14.1596 15.1548C14.5448 15.3877 14.9632 15.5573 15.3996 15.6574C15.7849 15.7602 16.1815 15.8119 16.5796 15.8112C16.9596 15.8112 17.2296 15.7599 17.4096 15.6676C17.4899 15.6296 17.5579 15.5688 17.6058 15.4925C17.6536 15.4162 17.6792 15.3275 17.6796 15.2368C17.6796 15.0932 17.5996 14.9599 17.4396 14.8266C17.2796 14.6932 16.9496 14.5394 16.4596 14.3445C15.9569 14.1629 15.4796 13.9146 15.0396 13.6061C14.7263 13.377 14.4666 13.0792 14.2796 12.7343C14.12 12.4103 14.041 12.051 14.0496 11.6881C14.0511 11.2505 14.1686 10.8215 14.3896 10.4471C14.6436 10.0354 15.0083 9.70769 15.4396 9.50351C15.9096 9.25735 16.4996 9.14453 17.2096 9.14453C17.6246 9.14465 18.039 9.1755 18.4496 9.23684C18.7449 9.27781 19.0338 9.35708 19.3096 9.47274C19.3536 9.48871 19.3895 9.52191 19.4096 9.56504C19.4211 9.60508 19.4279 9.64641 19.4296 9.68812V11.3599C19.4298 11.3798 19.4253 11.3995 19.4166 11.4174C19.4079 11.4352 19.3953 11.4507 19.3796 11.4625C19.3214 11.4839 19.2578 11.4839 19.1996 11.4625Z" fill="#31A8FF"/>
</svg>