
<svg xmlns="http://www.w3.org/2000/svg" width="24" height="25" viewBox="0 0 24 25" fill="none">
  <path d="M4.25 0.500002H19.75C20.3083 0.499462 20.8612 0.611842 21.377 0.83071C21.8929 1.04958 22.3616 1.37064 22.7564 1.77551C23.1511 2.18039 23.4642 2.66113 23.6776 3.19023C23.891 3.71933 24.0005 4.2864 24 4.85898V20.141C24.0005 20.7136 23.891 21.2807 23.6776 21.8098C23.4642 22.3389 23.1511 22.8196 22.7564 23.2245C22.3616 23.6294 21.8929 23.9504 21.377 24.1693C20.8612 24.3882 20.3083 24.5005 19.75 24.5H4.25C3.69174 24.5005 3.13885 24.3882 2.62297 24.1693C2.1071 23.9504 1.63838 23.6294 1.24362 23.2245C0.848871 22.8196 0.535838 22.3389 0.322442 21.8098C0.109046 21.2807 -0.000524284 20.7136 1.88608e-06 20.141V4.85898C-0.000524284 4.2864 0.109046 3.71933 0.322442 3.19023C0.535838 2.66113 0.848871 2.18039 1.24362 1.77551C1.63838 1.37064 2.1071 1.04958 2.62297 0.83071C3.13885 0.611842 3.69174 0.499462 4.25 0.500002Z" fill="#00005B"/>
  <path d="M5.69922 17.3298V6.77592C5.69922 6.70413 5.72922 6.6631 5.79922 6.6631C5.96922 6.6631 6.12922 6.6631 6.35922 6.65284C6.58922 6.64259 6.84922 6.64259 7.11922 6.63233C7.38922 6.62208 7.67922 6.62208 7.98922 6.61182C8.29922 6.60156 8.59922 6.60156 8.89922 6.60156C9.71922 6.60156 10.3992 6.70413 10.9592 6.91951C11.4612 7.09436 11.919 7.38165 12.2992 7.76054C12.6215 8.09211 12.8704 8.49086 13.0292 8.92977C13.1806 9.3572 13.2584 9.80835 13.2592 10.2631C13.2592 11.1452 13.0592 11.8734 12.6592 12.4477C12.2574 13.0213 11.6963 13.4573 11.0492 13.699C10.3692 13.9554 9.61922 14.0477 8.79922 14.0477C8.55922 14.0477 8.39922 14.0477 8.29922 14.0375C8.19922 14.0272 8.05922 14.0272 7.86922 14.0272V17.3195C7.87145 17.3364 7.87036 17.3536 7.866 17.37C7.86164 17.3864 7.85411 17.4018 7.84385 17.4152C7.83359 17.4286 7.82081 17.4397 7.80627 17.4479C7.79174 17.4562 7.77573 17.4613 7.75922 17.4631H5.81922C5.73922 17.4631 5.69922 17.4221 5.69922 17.3298ZM7.87922 8.64259V12.0887C8.01922 12.099 8.14922 12.1093 8.26922 12.1093H8.79922C9.1896 12.1097 9.57765 12.0474 9.94922 11.9246C10.268 11.8285 10.5528 11.6397 10.7692 11.381C10.9792 11.1246 11.0792 10.7759 11.0792 10.3246C11.0886 10.0041 11.0089 9.68752 10.8492 9.41182C10.6825 9.14552 10.4373 8.94072 10.1492 8.8272C9.77381 8.6764 9.37212 8.60657 8.96922 8.62207C8.70922 8.62207 8.47922 8.62208 8.28922 8.63233C8.15253 8.62317 8.01531 8.6266 7.87922 8.64259Z" fill="#9999FF"/>
  <path d="M14.6589 9.23801H16.4089C16.4563 9.23919 16.5021 9.25568 16.5398 9.28515C16.5775 9.31462 16.6052 9.35556 16.6189 9.40212C16.6494 9.48463 16.6696 9.57079 16.6789 9.65853C16.6989 9.76109 16.7189 9.87391 16.7289 9.97648C16.7389 10.079 16.7489 10.2124 16.7489 10.3457C17.0491 9.98619 17.412 9.68708 17.8189 9.46365C18.2837 9.19882 18.8071 9.06108 19.3389 9.06365C19.3553 9.06136 19.3721 9.06249 19.3881 9.06696C19.4041 9.07143 19.4191 9.07915 19.4322 9.08968C19.4452 9.1002 19.4561 9.1133 19.4641 9.12821C19.4721 9.14312 19.4771 9.15954 19.4789 9.17647V11.2175C19.4789 11.2996 19.4289 11.3303 19.3189 11.3303C18.9561 11.3181 18.5933 11.3526 18.2389 11.4329C17.95 11.494 17.6684 11.5869 17.3989 11.7098C17.2054 11.7993 17.0318 11.9284 16.8889 12.0893V17.3201C16.8889 17.4226 16.8489 17.4637 16.7589 17.4637H14.7889C14.7704 17.4668 14.7515 17.4662 14.7334 17.4616C14.7152 17.4571 14.6981 17.4488 14.6831 17.4373C14.6682 17.4258 14.6556 17.4113 14.6463 17.3947C14.637 17.378 14.6311 17.3596 14.6289 17.3406V11.6175C14.6289 11.3713 14.6289 11.1149 14.6189 10.8483C14.6089 10.5816 14.6089 10.3149 14.5989 10.0483C14.5989 9.81237 14.5789 9.58673 14.5589 9.35083C14.5562 9.33871 14.5559 9.32617 14.558 9.31393C14.5601 9.30169 14.5645 9.28999 14.571 9.27951C14.5775 9.26903 14.586 9.25997 14.5959 9.25284C14.6058 9.24572 14.617 9.24068 14.6289 9.23801C14.6289 9.22776 14.6489 9.22776 14.6589 9.23801Z" fill="#9999FF"/>
</svg>