<svg width="18" height="18" viewBox="0 0 18 18" fill="none" xmlns="http://www.w3.org/2000/svg">
<g id="Icon/Close">
<mask id="mask0_920_65154" style="mask-type:alpha" maskUnits="userSpaceOnUse" x="0" y="0" width="18" height="18">
<rect id="Bound Box" y="9" width="12.681" height="12.681" transform="rotate(-45 0 9)" fill="#D9D9D9"/>
</mask>
<g mask="url(#mask0_920_65154)">
<path id="Vector" fill-rule="evenodd" clip-rule="evenodd" d="M9.43654 2.19291C9.43654 1.93312 9.22594 1.72251 8.96615 1.72251C8.70635 1.72251 8.49575 1.93312 8.49575 2.19291L8.49575 8.52961L2.15906 8.5296C1.89926 8.5296 1.68866 8.74021 1.68866 9C1.68866 9.25979 1.89926 9.47039 2.15906 9.47039L8.49575 9.47039L8.49575 15.8071C8.49575 16.0669 8.70635 16.2775 8.96615 16.2775C9.22594 16.2775 9.43654 16.0669 9.43654 15.8071V9.47039L15.7732 9.47039C16.033 9.4704 16.2436 9.25979 16.2436 9C16.2436 8.74021 16.033 8.5296 15.7732 8.52961L9.43654 8.5296L9.43654 2.19291Z" fill="black"/>
</g>
</g>
</svg>
