<svg xmlns="http://www.w3.org/2000/svg" width="11" height="11" viewBox="0 0 11 11" fill="none">
  <path d="M9.23224 7.73953C9.209 7.77836 9.17832 7.81223 9.14196 7.83917C9.1056 7.86612 9.06428 7.88562 9.02037 7.89656C8.97645 7.9075 8.93081 7.90966 8.88606 7.90292C8.84131 7.89617 8.79833 7.88066 8.75959 7.85727L5.84373 6.10715V9.28125C5.84373 9.37242 5.80751 9.45985 5.74304 9.52432C5.67858 9.58878 5.59115 9.625 5.49998 9.625C5.40881 9.625 5.32137 9.58878 5.25691 9.52432C5.19244 9.45985 5.15623 9.37242 5.15623 9.28125V6.10715L2.23951 7.85727C2.20078 7.88106 2.15773 7.89693 2.11283 7.90397C2.06793 7.91101 2.02208 7.90908 1.97793 7.89829C1.93378 7.88749 1.89221 7.86805 1.85563 7.84109C1.81904 7.81412 1.78817 7.78017 1.76479 7.7412C1.74141 7.70222 1.72599 7.659 1.71943 7.61403C1.71286 7.56906 1.71528 7.52323 1.72654 7.4792C1.7378 7.43517 1.75768 7.39381 1.78503 7.35751C1.81238 7.32121 1.84666 7.2907 1.88588 7.26773L4.83181 5.5L1.88588 3.73227C1.84666 3.7093 1.81238 3.67879 1.78503 3.64249C1.75768 3.60619 1.7378 3.56483 1.72654 3.5208C1.71528 3.47677 1.71286 3.43094 1.71943 3.38597C1.72599 3.341 1.74141 3.29778 1.76479 3.2588C1.78817 3.21983 1.81904 3.18588 1.85563 3.15891C1.89221 3.13195 1.93378 3.11251 1.97793 3.10171C2.02208 3.09092 2.06793 3.08899 2.11283 3.09603C2.15773 3.10307 2.20078 3.11894 2.23951 3.14273L5.15623 4.89285V1.71875C5.15623 1.62758 5.19244 1.54015 5.25691 1.47568C5.32137 1.41122 5.40881 1.375 5.49998 1.375C5.59115 1.375 5.67858 1.41122 5.74304 1.47568C5.80751 1.54015 5.84373 1.62758 5.84373 1.71875V4.89285L8.76045 3.14273C8.79917 3.11894 8.84223 3.10307 8.88713 3.09603C8.93203 3.08899 8.97788 3.09092 9.02202 3.10171C9.06617 3.11251 9.10774 3.13195 9.14433 3.15891C9.18091 3.18588 9.21179 3.21983 9.23517 3.2588C9.25854 3.29778 9.27396 3.341 9.28053 3.38597C9.28709 3.43094 9.28468 3.47677 9.27341 3.5208C9.26215 3.56483 9.24227 3.60619 9.21492 3.64249C9.18757 3.67879 9.1533 3.7093 9.11408 3.73227L6.16814 5.5L9.11408 7.26773C9.15283 7.29094 9.18663 7.32155 9.21355 7.35783C9.24046 7.3941 9.25996 7.43533 9.27094 7.47914C9.28191 7.52296 9.28414 7.56851 9.2775 7.61319C9.27086 7.65787 9.25548 7.7008 9.23224 7.73953Z" fill="black"/>
</svg>