<svg width="24" height="24" viewBox="0 0 24 24" fill="none" xmlns="http://www.w3.org/2000/svg">
<g id="solar:camera-linear">
<g id="Group">
<path id="Vector" d="M12 16C13.6569 16 15 14.6569 15 13C15 11.3431 13.6569 10 12 10C10.3431 10 9 11.3431 9 13C9 14.6569 10.3431 16 12 16Z" stroke="black" stroke-width="1.5"/>
<path id="Vector_2" d="M9.778 21H14.222C17.343 21 18.904 21 20.025 20.265C20.5087 19.948 20.9253 19.5389 21.251 19.061C22 17.961 22 16.428 22 13.364C22 10.299 22 8.76705 21.251 7.66705C20.9253 7.18916 20.5087 6.78005 20.025 6.46305C19.305 5.99005 18.403 5.82105 17.022 5.76105C16.363 5.76105 15.796 5.27105 15.667 4.63605C15.5684 4.17092 15.3123 3.75408 14.9418 3.456C14.5714 3.15791 14.1095 2.99686 13.634 3.00005H10.366C9.378 3.00005 8.527 3.68505 8.333 4.63605C8.204 5.27105 7.637 5.76105 6.978 5.76105C5.598 5.82105 4.696 5.99105 3.975 6.46305C3.49162 6.78011 3.07537 7.18922 2.75 7.66705C2 8.76705 2 10.299 2 13.364C2 16.428 2 17.96 2.749 19.061C3.073 19.537 3.489 19.946 3.975 20.265C5.096 21 6.657 21 9.778 21Z" stroke="black" stroke-width="1.5"/>
<path id="Vector_3" d="M19 10H18" stroke="black" stroke-width="1.5" stroke-linecap="round"/>
</g>
</g>
</svg>
