<svg width="25" height="26" viewBox="0 0 25 26" fill="none" xmlns="http://www.w3.org/2000/svg">
<path d="M12.5 2.84375C10.4913 2.84375 8.52768 3.4394 6.85749 4.55539C5.18731 5.67137 3.88556 7.25756 3.11685 9.11337C2.34815 10.9692 2.14702 13.0113 2.5389 14.9814C2.93079 16.9515 3.89807 18.7612 5.31845 20.1816C6.73883 21.6019 8.5485 22.5692 10.5186 22.9611C12.4887 23.353 14.5308 23.1519 16.3866 22.3832C18.2424 21.6144 19.8286 20.3127 20.9446 18.6425C22.0606 16.9723 22.6563 15.0087 22.6563 13C22.6534 10.3073 21.5825 7.72564 19.6784 5.82159C17.7744 3.91754 15.1927 2.84659 12.5 2.84375ZM12.5 21.5938C10.8003 21.5938 9.13881 21.0897 7.72557 20.1454C6.31234 19.2011 5.21086 17.859 4.56041 16.2887C3.90997 14.7184 3.73979 12.9905 4.07138 11.3234C4.40297 9.65642 5.22145 8.12516 6.42331 6.9233C7.62516 5.72144 9.15642 4.90297 10.8234 4.57138C12.4905 4.23978 14.2184 4.40997 15.7887 5.06041C17.359 5.71085 18.7012 6.81233 19.6454 8.22557C20.5897 9.6388 21.0938 11.3003 21.0938 13C21.0912 15.2784 20.1849 17.4628 18.5738 19.0738C16.9628 20.6849 14.7784 21.5912 12.5 21.5938ZM15.3965 12.4473C15.4691 12.5198 15.5268 12.606 15.5661 12.7008C15.6054 12.7957 15.6256 12.8973 15.6256 13C15.6256 13.1027 15.6054 13.2043 15.5661 13.2992C15.5268 13.394 15.4691 13.4802 15.3965 13.5527L11.4902 17.459C11.4177 17.5316 11.3315 17.5891 11.2366 17.6284C11.1418 17.6677 11.0402 17.6879 10.9375 17.6879C10.8349 17.6879 10.7332 17.6677 10.6384 17.6284C10.5435 17.5891 10.4574 17.5316 10.3848 17.459C10.3122 17.3864 10.2546 17.3002 10.2153 17.2054C10.176 17.1105 10.1558 17.0089 10.1558 16.9062C10.1558 16.8036 10.176 16.702 10.2153 16.6071C10.2546 16.5123 10.3122 16.4261 10.3848 16.3535L13.7393 13L10.3848 9.64648C10.2382 9.49989 10.1558 9.30107 10.1558 9.09375C10.1558 8.88643 10.2382 8.68761 10.3848 8.54102C10.5314 8.39442 10.7302 8.31207 10.9375 8.31207C11.1448 8.31207 11.3436 8.39442 11.4902 8.54102L15.3965 12.4473Z" fill="white"/>
</svg>
