<svg xmlns="http://www.w3.org/2000/svg" width="32" height="32" viewBox="0 0 32 32" fill="none">
  <path d="M26.7071 12.7074L16.7071 22.7074C16.6142 22.8004 16.5039 22.8742 16.3825 22.9245C16.2611 22.9748 16.131 23.0007 15.9996 23.0007C15.8682 23.0007 15.738 22.9748 15.6166 22.9245C15.4952 22.8742 15.385 22.8004 15.2921 22.7074L5.29208 12.7074C5.10444 12.5198 4.99902 12.2653 4.99902 11.9999C4.99902 11.7346 5.10444 11.4801 5.29208 11.2924C5.47972 11.1048 5.73422 10.9994 5.99958 10.9994C6.26494 10.9994 6.51944 11.1048 6.70708 11.2924L15.9996 20.5862L25.2921 11.2924C25.385 11.1995 25.4953 11.1258 25.6167 11.0756C25.7381 11.0253 25.8682 10.9994 25.9996 10.9994C26.131 10.9994 26.2611 11.0253 26.3825 11.0756C26.5039 11.1258 26.6142 11.1995 26.7071 11.2924C26.8 11.3854 26.8737 11.4957 26.924 11.617C26.9743 11.7384 27.0001 11.8686 27.0001 11.9999C27.0001 12.1313 26.9743 12.2614 26.924 12.3828C26.8737 12.5042 26.8 12.6145 26.7071 12.7074Z" fill="#343330"/>
</svg>