<svg width="24" height="24" viewBox="0 0 24 24" fill="none" xmlns="http://www.w3.org/2000/svg">
<path d="M6.96945 12.5306L14.4694 20.0306C14.5391 20.1003 14.6219 20.1556 14.7129 20.1933C14.8039 20.231 14.9015 20.2504 15.0001 20.2504C15.0986 20.2504 15.1962 20.231 15.2872 20.1933C15.3783 20.1556 15.461 20.1003 15.5307 20.0306C15.6004 19.9609 15.6557 19.8782 15.6934 19.7872C15.7311 19.6961 15.7505 19.5985 15.7505 19.5C15.7505 19.4014 15.7311 19.3039 15.6934 19.2128C15.6557 19.1218 15.6004 19.039 15.5307 18.9694L8.56038 12L15.5307 5.03061C15.6714 4.88988 15.7505 4.69901 15.7505 4.49999C15.7505 4.30097 15.6714 4.1101 15.5307 3.96936C15.39 3.82863 15.1991 3.74957 15.0001 3.74957C14.801 3.74957 14.6102 3.82863 14.4694 3.96936L6.96945 11.4694C6.89971 11.539 6.84439 11.6217 6.80665 11.7128C6.76891 11.8038 6.74948 11.9014 6.74948 12C6.74948 12.0986 6.76891 12.1961 6.80665 12.2872C6.84439 12.3782 6.89971 12.461 6.96945 12.5306Z" fill="#8A8A8A"/>
</svg>
