<svg xmlns="http://www.w3.org/2000/svg" width="24" height="24" viewBox="0 0 24 24" fill="none">
  <path d="M12 2C6.47059 2 2 6.47059 2 12C2 17.5294 6.47059 22 12 22C17.5294 22 22 17.5294 22 12C22 6.47059 17.5294 2 12 2ZM12 20.8235C7.11765 20.8235 3.17647 16.8824 3.17647 12C3.17647 7.11765 7.11765 3.17647 12 3.17647C16.8824 3.17647 20.8235 7.11765 20.8235 12C20.8235 16.8824 16.8824 20.8235 12 20.8235Z" fill="#8A8A8A"/>
  <path d="M7.67969 12.4805H16.3197V11.5205H7.67969V12.4805Z" fill="#8A8A8A"/>
  <path d="M11.5195 16.3203H12.4795V7.68031H11.5195V16.3203Z" fill="#8A8A8A"/>
</svg>