<svg xmlns="http://www.w3.org/2000/svg" width="19" height="18" viewBox="0 0 19 18" fill="none">
  <path d="M1.35877 15.6701L1.948 15.8783L1.35877 15.6701ZM2.63468 16.946L2.42646 16.3568L2.42646 16.3568L2.63468 16.946ZM4.73563 16.2036L4.94384 16.7929L4.73563 16.2036ZM5.45681 16.2726L5.15368 16.8191L5.15368 16.8191L5.45681 16.2726ZM2.13223 13.4812L1.54299 13.273L2.13223 13.4812ZM1.7851 8.98096C1.7851 4.72418 5.2359 1.27338 9.49268 1.27338V0.0234985C4.54561 0.0234985 0.535217 4.03389 0.535217 8.98096H1.7851ZM2.63289 12.4991C2.09114 11.4451 1.7851 10.2497 1.7851 8.98096H0.535217C0.535217 10.453 0.890779 11.8438 1.52125 13.0704L2.63289 12.4991ZM1.948 15.8783L2.72146 13.6894L1.54299 13.273L0.769531 15.4619L1.948 15.8783ZM2.42646 16.3568C2.12927 16.4618 1.84298 16.1755 1.948 15.8783L0.769531 15.4619C0.314454 16.7498 1.55501 17.9903 2.84289 17.5352L2.42646 16.3568ZM4.52742 15.6144L2.42646 16.3568L2.84289 17.5352L4.94384 16.7929L4.52742 15.6144ZM9.49268 16.6885C8.13723 16.6885 6.86525 16.3392 5.75994 15.7261L5.15368 16.8191C6.43974 17.5325 7.91974 17.9384 9.49268 17.9384V16.6885ZM17.2003 8.98096C17.2003 13.2377 13.7495 16.6885 9.49268 16.6885V17.9384C14.4397 17.9384 18.4501 13.928 18.4501 8.98096H17.2003ZM9.49268 1.27338C13.7495 1.27338 17.2003 4.72418 17.2003 8.98096H18.4501C18.4501 4.03389 14.4397 0.0234985 9.49268 0.0234985V1.27338ZM4.94384 16.7929C4.99843 16.7736 5.075 16.7755 5.15368 16.8191L5.75994 15.7261C5.39692 15.5247 4.94907 15.4654 4.52742 15.6144L4.94384 16.7929ZM1.52125 13.0704C1.5607 13.1472 1.56155 13.2205 1.54299 13.273L2.72146 13.6894C2.86465 13.2842 2.81537 12.8541 2.63289 12.4991L1.52125 13.0704Z" fill="#8A8A8A"/>
  <circle cx="5.36774" cy="9.01031" r="1.04157" fill="#8A8A8A"/>
  <circle cx="9.53375" cy="9.01031" r="1.04157" fill="#8A8A8A"/>
  <circle cx="13.6998" cy="9.01031" r="1.04157" fill="#8A8A8A"/>
</svg>