<svg width="62" height="21" viewBox="0 0 62 21" fill="none" xmlns="http://www.w3.org/2000/svg">
<rect x="18.6855" y="3.18921" width="5.67321" height="14.183" fill="#BEBEBE"/>
<rect x="32.8711" y="3.18921" width="4.5052" height="14.183" transform="rotate(90 32.8711 3.18921)" fill="#BEBEBE"/>
<rect x="29.5332" y="9.19653" width="4.5052" height="10.8458" transform="rotate(90 29.5332 9.19653)" fill="#BEBEBE"/>
<rect x="24.3633" y="9.19653" width="4.5052" height="5.67321" transform="rotate(90 24.3633 9.19653)" fill="#797979" style="mix-blend-mode:multiply"/>
<rect x="24.3633" y="3.18921" width="4.5052" height="5.67321" transform="rotate(90 24.3633 3.18921)" fill="#797979" style="mix-blend-mode:multiply"/>
<path d="M51.5129 15.3375C54.2823 18.1069 58.7724 18.1069 61.5418 15.3375L56.5273 10.323L51.5129 15.3375Z" fill="#BEBEBE"/>
<path d="M51.5676 15.3948C48.7982 12.6254 48.7982 8.13532 51.5676 5.36591L56.582 10.3804L51.5676 15.3948Z" fill="#6B6B6B"/>
<path d="M51.5676 5.36591C54.337 2.5965 58.8271 2.5965 61.5965 5.36591L56.582 10.3804L51.5676 5.36591Z" fill="#BEBEBE"/>
<path d="M14.6895 12.9511C14.6895 10.509 12.7098 8.5293 10.2677 8.5293H0.00584221V17.3728H10.2677C12.7098 17.3728 14.6895 15.3931 14.6895 12.9511Z" fill="#BEBEBE"/>
<path d="M0.00195312 8.19474C0.00195312 5.43013 2.24312 3.18896 5.00773 3.18896H14.6856V13.2005H5.00773C2.24311 13.2005 0.00195312 10.9594 0.00195312 8.19474Z" fill="#BEBEBE"/>
<path fill-rule="evenodd" clip-rule="evenodd" d="M14.6652 13.2002H4.99478C2.34253 13.2002 0.172057 11.1375 0 8.52881H10.2504C12.6925 8.52881 14.6722 10.5085 14.6722 12.9506C14.6722 13.0343 14.6698 13.1176 14.6652 13.2002Z" fill="#797979"/>
<path d="M39.7104 3.18921V17.3722H32.8691L39.7104 3.18921Z" fill="#BEBEBE"/>
<path d="M39.7115 3.18921V17.3722H46.5527L39.7115 3.18921Z" fill="#797979"/>
</svg>
