<svg width="33" height="32" viewBox="0 0 33 32" fill="none" xmlns="http://www.w3.org/2000/svg">
<g clip-path="url(#clip0_528_47639)">
<path d="M27.1662 16.4625C27.1662 15.5618 27.0951 14.9099 26.941 14.2344H16.7129V18.2759H22.7099C22.5914 19.2833 21.9396 20.7884 20.4818 21.8077L20.4581 21.9381L23.6936 24.4388L23.9188 24.4625C25.9692 22.5662 27.1544 19.7692 27.1544 16.4507" fill="#4285F4"/>
<path d="M16.7127 27.1053C19.6519 27.1053 22.1171 26.1334 23.9186 24.4742L20.4815 21.8194C19.5571 22.4594 18.3245 22.9097 16.7127 22.9097C13.8327 22.9097 11.3912 21.0134 10.526 18.3823H10.3956L7.04155 20.9897L6.99414 21.1083C8.78377 24.6638 12.4578 27.1053 16.7127 27.1053Z" fill="#34A853"/>
<path d="M10.5263 18.3706C10.3012 17.6951 10.1589 16.9721 10.1589 16.2136C10.1589 15.4551 10.2893 14.7439 10.5145 14.0565V13.9143L7.10116 11.2832L6.99449 11.3306C6.25967 12.8002 5.83301 14.4595 5.83301 16.2136C5.83301 17.9676 6.25967 19.6269 6.99449 21.0965L10.5263 18.3588" fill="#FBBC05"/>
<path d="M16.7127 9.5409C18.7512 9.5409 20.1378 10.4179 20.9201 11.1646L23.9897 8.16609C22.1053 6.41201 19.6519 5.3335 16.7127 5.3335C12.4578 5.3335 8.78377 7.77498 6.99414 11.3305L10.5141 14.0683C11.3912 11.4491 13.8445 9.5409 16.7127 9.5409Z" fill="#EB4335"/>
</g>
<defs>
<clipPath id="clip0_528_47639">
<rect width="21.3333" height="21.7719" fill="white" transform="translate(5.83301 5.3335)"/>
</clipPath>
</defs>
</svg>
