<svg width="19" height="17" viewBox="0 0 19 17" fill="none" xmlns="http://www.w3.org/2000/svg">
<path id="Vector" d="M13.7411 0C11.9895 0 10.4559 0.753214 9.5 2.02638C8.54406 0.753214 7.01049 0 5.25893 0C3.86466 0.00157152 2.52794 0.55614 1.54204 1.54204C0.55614 2.52794 0.00157152 3.86466 0 5.25893C0 11.1964 8.80362 16.0024 9.17853 16.2009C9.27734 16.254 9.38779 16.2819 9.5 16.2819C9.6122 16.2819 9.72266 16.254 9.82147 16.2009C10.1964 16.0024 19 11.1964 19 5.25893C18.9984 3.86466 18.4439 2.52794 17.458 1.54204C16.4721 0.55614 15.1353 0.00157152 13.7411 0ZM9.5 14.8268C7.95116 13.9243 1.35714 9.81299 1.35714 5.25893C1.35849 4.22452 1.77 3.23287 2.50144 2.50144C3.23287 1.77 4.22452 1.35849 5.25893 1.35714C6.90871 1.35714 8.29384 2.23589 8.87232 3.64732C8.92344 3.77178 9.01041 3.87823 9.12218 3.95314C9.23394 4.02806 9.36545 4.06806 9.5 4.06806C9.63455 4.06806 9.76606 4.02806 9.87782 3.95314C9.98958 3.87823 10.0766 3.77178 10.1277 3.64732C10.7062 2.23335 12.0913 1.35714 13.7411 1.35714C14.7755 1.35849 15.7671 1.77 16.4986 2.50144C17.23 3.23287 17.6415 4.22452 17.6429 5.25893C17.6429 9.8062 11.0471 13.9234 9.5 14.8268Z" fill="#C4C4C4"/>
</svg>
