<svg width="24" height="24" viewBox="0 0 24 24" fill="none" xmlns="http://www.w3.org/2000/svg">
<mask id="mask0_737_45169" style="mask-type:alpha" maskUnits="userSpaceOnUse" x="0" y="0" width="24" height="24">
<rect width="24" height="24" transform="matrix(-1 8.74228e-08 8.74228e-08 1 24 0)" fill="#D9D9D9"/>
</mask>
<g mask="url(#mask0_737_45169)">
<path fill-rule="evenodd" clip-rule="evenodd" d="M2.26075 3.51979C1.91309 3.17211 1.91309 2.60843 2.26076 2.26076C2.60843 1.91308 3.17212 1.91308 3.51979 2.26075L12 10.741L20.4802 2.26075C20.8279 1.91308 21.3916 1.91308 21.7392 2.26075C22.0869 2.60843 22.0869 3.17211 21.7392 3.51978L13.259 12L21.7392 20.4802C22.0869 20.8279 22.0869 21.3916 21.7392 21.7392C21.3916 22.0869 20.8279 22.0869 20.4802 21.7392L12 13.259L3.51978 21.7392C3.17212 22.0869 2.60842 22.0869 2.26076 21.7392C1.91308 21.3916 1.91308 20.8279 2.26076 20.4802L10.741 12L2.26075 3.51979Z" fill="#8A8A8A"/>
</g>
</svg>
