<svg width="24" height="24" viewBox="0 0 24 24" fill="none" xmlns="http://www.w3.org/2000/svg">
<path d="M5.07227 8.00047C5.80996 6.72275 6.88661 5.67392 8.1832 4.96993C9.47979 4.26594 10.9458 3.93422 12.4192 4.01143C13.8925 4.08865 15.3158 4.5718 16.5317 5.40746C17.7476 6.24312 18.7087 7.39875 19.3088 8.74658" stroke="#8A8A8A" stroke-width="1.5" stroke-linecap="round"/>
<path d="M3.2304 5.51446L3.95981 8.674C4.08405 9.21213 4.621 9.54766 5.15913 9.42343L8.31867 8.69401" stroke="#8A8A8A" stroke-width="1.5" stroke-linecap="round"/>
<path d="M18.9277 15.9995C18.19 17.2772 17.1134 18.3261 15.8168 19.0301C14.5202 19.7341 13.0542 20.0658 11.5808 19.9886C10.1075 19.9114 8.68418 19.4282 7.46828 18.5925C6.25238 17.7569 5.29126 16.6012 4.69117 15.2534" stroke="#8A8A8A" stroke-width="1.5" stroke-linecap="round"/>
<path d="M20.7696 18.4855L20.0402 15.326C19.916 14.7879 19.379 14.4523 18.8409 14.5766L15.6813 15.306" stroke="#8A8A8A" stroke-width="1.5" stroke-linecap="round"/>
</svg>
