<svg width="10" height="10" viewBox="0 0 10 10" fill="none" xmlns="http://www.w3.org/2000/svg">
<path fill-rule="evenodd" clip-rule="evenodd" d="M9.05867 1.46527C9.20353 1.32041 9.20353 1.08554 9.05867 0.940678C8.91381 0.795816 8.67894 0.795816 8.53407 0.940678L5.00065 4.4741L1.46723 0.940679C1.32237 0.795815 1.0875 0.795815 0.942633 0.940679C0.79777 1.08554 0.79777 1.32041 0.942633 1.46527L4.47606 4.9987L0.942632 8.53212C0.797768 8.67698 0.797768 8.91185 0.942633 9.05672C1.08749 9.20158 1.32237 9.20158 1.46723 9.05672L5.00065 5.52329L8.53408 9.05672C8.67894 9.20158 8.91381 9.20158 9.05867 9.05672C9.20353 8.91185 9.20353 8.67698 9.05867 8.53212L5.52525 4.9987L9.05867 1.46527Z" fill="#0059FF"/>
</svg>
