<svg width="25" height="24" viewBox="0 0 25 24" fill="none" xmlns="http://www.w3.org/2000/svg">
<g id="Iconex/Light/Edit 1">
<path id="Union" fill-rule="evenodd" clip-rule="evenodd" d="M14.0137 3.8065C15.0869 2.73174 16.8274 2.73108 17.9013 3.80503L20.3932 6.29688C21.458 7.36166 21.469 9.08542 20.418 10.1638L11.1849 19.637C10.4793 20.3609 9.51167 20.7691 8.50124 20.7691L5.74909 20.7689C4.46984 20.7689 3.44823 19.7025 3.50203 18.4234L3.62019 15.6144C3.65968 14.6754 4.04996 13.7854 4.7138 13.1205L14.0137 3.8065ZM16.8415 4.86649C16.3533 4.37833 15.5622 4.37863 15.0744 4.86716L13.4113 6.53276L17.6911 10.8125L19.3446 9.11603C19.8224 8.62586 19.8173 7.84233 19.3333 7.35834L16.8415 4.86649ZM5.77446 14.1812L12.3514 7.59422L16.644 11.8868L10.1115 18.5893C9.68816 19.0236 9.10756 19.2685 8.5013 19.2685L5.74916 19.2684C5.32274 19.2684 4.9822 18.9129 5.00014 18.4865L5.11829 15.6775C5.14199 15.1141 5.37616 14.5801 5.77446 14.1812ZM21.0148 20.6958C21.4289 20.6958 21.7645 20.3598 21.7645 19.9455C21.7645 19.5311 21.4289 19.1952 21.0148 19.1952H14.8931C14.4791 19.1952 14.1434 19.5311 14.1434 19.9455C14.1434 20.3598 14.4791 20.6958 14.8931 20.6958H21.0148Z" fill="#ffffff"/>
</g>
</svg>
