<svg width="14" height="15" viewBox="0 0 14 15" fill="none" xmlns="http://www.w3.org/2000/svg">
<mask id="mask0_647_26291" style="mask-type:alpha" maskUnits="userSpaceOnUse" x="0" y="0" width="14" height="15">
<rect y="0.351562" width="14" height="14" fill="#D9D9D9"/>
</mask>
<g mask="url(#mask0_647_26291)">
<path d="M7.58301 1.51839C7.58301 1.19622 7.32184 0.935059 6.99967 0.935059C6.67751 0.935059 6.41634 1.19622 6.41634 1.51839V6.76839H1.16634C0.844175 6.76839 0.583008 7.02956 0.583008 7.35173C0.583008 7.6739 0.844175 7.93506 1.16634 7.93506H6.41634V13.1851C6.41634 13.5072 6.67751 13.7684 6.99967 13.7684C7.32184 13.7684 7.58301 13.5072 7.58301 13.1851V7.93506H12.833C13.1552 7.93506 13.4163 7.6739 13.4163 7.35173C13.4163 7.02956 13.1552 6.76839 12.833 6.76839H7.58301V1.51839Z" fill="#0059FF"/>
</g>
</svg>
