<svg width="25" height="24" viewBox="0 0 25 24" fill="none" xmlns="http://www.w3.org/2000/svg">
<path fill-rule="evenodd" clip-rule="evenodd" d="M20.5378 2.7201C19.5731 1.75945 18.0097 1.76004 17.0457 2.72142L9.5903 10.1583C8.99401 10.753 8.64344 11.5492 8.60796 12.3891L8.50182 14.9018C8.4535 16.046 9.37116 16.9998 10.5203 16.9999L12.9924 17C13.9 17 14.7692 16.6349 15.4029 15.9874L22.7984 8.40804C23.7425 7.44344 23.7326 5.90152 22.7761 4.94907L20.5378 2.7201ZM17.9985 3.67018C18.4366 3.23319 19.1473 3.23293 19.5858 3.66958L21.8241 5.89856C22.2588 6.33149 22.2634 7.03236 21.8342 7.47082L20.3489 8.98837L16.5046 5.16008L17.9985 3.67018ZM15.5526 6.10956L10.543 11.1071C10.1853 11.4639 9.97492 11.9416 9.95363 12.4456L9.8475 14.9583C9.83139 15.3397 10.1373 15.6576 10.5203 15.6576L12.9924 15.6577C13.537 15.6578 14.0585 15.4387 14.4388 15.0502L19.4084 9.94931L15.5526 6.10956Z" fill="white"/>
<path d="M21.5 13V17C21.5 19.7614 19.2614 22 16.5 22H8.5C5.73858 22 3.5 19.7614 3.5 17V9C3.5 6.23858 5.73858 4 8.5 4H12.5" stroke="white" stroke-width="1.5" stroke-linecap="round"/>
</svg>
