<svg width="14" height="14" viewBox="0 0 14 14" fill="none" xmlns="http://www.w3.org/2000/svg">
<mask id="mask0_743_35945" style="mask-type:alpha" maskUnits="userSpaceOnUse" x="0" y="0" width="14" height="14">
<rect width="14" height="14" fill="#D9D9D9"/>
</mask>
<g mask="url(#mask0_743_35945)">
<path d="M7.58398 1.16732C7.58398 0.845147 7.32282 0.583984 7.00065 0.583984C6.67849 0.583984 6.41732 0.845147 6.41732 1.16732V6.41732H1.16732C0.845152 6.41732 0.583984 6.67848 0.583984 7.00065C0.583984 7.32282 0.845152 7.58398 1.16732 7.58398H6.41732V12.834C6.41732 13.1562 6.67849 13.4173 7.00065 13.4173C7.32282 13.4173 7.58398 13.1562 7.58398 12.834V7.58398H12.834C13.1562 7.58398 13.4173 7.32282 13.4173 7.00065C13.4173 6.67848 13.1562 6.41732 12.834 6.41732H7.58398V1.16732Z" fill="#0059FF"/>
</g>
</svg>
