<svg width="14" height="14" viewBox="0 0 14 14" fill="none" xmlns="http://www.w3.org/2000/svg">
<g id="Icon/Add">
<mask id="mask0_905_58144" style="mask-type:alpha" maskUnits="userSpaceOnUse" x="0" y="0" width="14" height="14">
<rect id="Bound Box" width="14" height="14" fill="#D9D9D9"/>
</mask>
<g mask="url(#mask0_905_58144)">
<path id="Vector" d="M7.58301 1.16732C7.58301 0.845147 7.32184 0.583984 6.99967 0.583984C6.67751 0.583984 6.41634 0.845147 6.41634 1.16732V6.41732H1.16634C0.844175 6.41732 0.583008 6.67848 0.583008 7.00065C0.583008 7.32282 0.844175 7.58398 1.16634 7.58398H6.41634V12.834C6.41634 13.1562 6.67751 13.4173 6.99967 13.4173C7.32184 13.4173 7.58301 13.1562 7.58301 12.834V7.58398H12.833C13.1552 7.58398 13.4163 7.32282 13.4163 7.00065C13.4163 6.67848 13.1552 6.41732 12.833 6.41732H7.58301V1.16732Z" fill="white"/>
</g>
</g>
</svg>
