<svg width="20" height="20" viewBox="0 0 20 20" fill="none" xmlns="http://www.w3.org/2000/svg">
<path d="M2.15317 12.17C2.94716 8.11716 6.26635 5.2375 10 5.2375C13.7325 5.2375 17.0517 8.11716 17.8468 12.17C17.8783 12.3308 17.9686 12.4717 18.0979 12.5618C18.2271 12.6518 18.3848 12.6836 18.5361 12.6501C18.6874 12.6166 18.8199 12.5207 18.9047 12.3833C18.9894 12.2459 19.0193 12.0783 18.9878 11.9175C18.0832 7.30784 14.2995 4 10 4C5.70054 4 1.91683 7.30784 1.01223 11.9175C0.980736 12.0783 1.01063 12.2459 1.09535 12.3833C1.18006 12.5207 1.31265 12.6166 1.46395 12.6501C1.61525 12.6836 1.77286 12.6518 1.90211 12.5618C2.03136 12.4717 2.12167 12.3308 2.15317 12.17ZM10 7.7125C8.91931 7.7125 7.88287 8.16883 7.11871 8.98109C6.35454 9.79336 5.92523 10.895 5.92523 12.0437C5.92523 13.1925 6.35454 14.2941 7.11871 15.1064C7.88287 15.9187 8.91931 16.375 10 16.375C11.0807 16.375 12.1171 15.9187 12.8813 15.1064C13.6455 14.2941 14.0748 13.1925 14.0748 12.0437C14.0748 10.895 13.6455 9.79336 12.8813 8.98109C12.1171 8.16883 11.0807 7.7125 10 7.7125ZM7.08945 12.0437C7.08945 11.2232 7.3961 10.4363 7.94193 9.85614C8.48777 9.27595 9.22808 8.95 10 8.95C10.7719 8.95 11.5122 9.27595 12.0581 9.85614C12.6039 10.4363 12.9105 11.2232 12.9105 12.0437C12.9105 12.8643 12.6039 13.6512 12.0581 14.2314C11.5122 14.8116 10.7719 15.1375 10 15.1375C9.22808 15.1375 8.48777 14.8116 7.94193 14.2314C7.3961 13.6512 7.08945 12.8643 7.08945 12.0437Z" fill="#8E8E8E"/>
</svg>
