<svg width="10" height="10" viewBox="0 0 10 10" fill="none" xmlns="http://www.w3.org/2000/svg">
<g id="Icon/Close">
<mask id="mask0_761_5589" style="mask-type:alpha" maskUnits="userSpaceOnUse" x="0" y="0" width="10" height="10">
<rect id="Bound Box" width="10" height="10" fill="#D9D9D9"/>
</mask>
<g mask="url(#mask0_761_5589)">
<path id="Vector" fill-rule="evenodd" clip-rule="evenodd" d="M9.05769 1.46723C9.20256 1.32236 9.20256 1.08749 9.05769 0.942632C8.91283 0.797769 8.67796 0.797769 8.5331 0.942632L4.99967 4.47605L1.46625 0.942632C1.32139 0.797769 1.08652 0.797769 0.941656 0.942632C0.796793 1.0875 0.796793 1.32236 0.941656 1.46723L4.47508 5.00065L0.941656 8.53407C0.796792 8.67894 0.796792 8.91381 0.941656 9.05867C1.08652 9.20353 1.32139 9.20353 1.46625 9.05867L4.99968 5.52525L8.5331 9.05867C8.67796 9.20353 8.91283 9.20353 9.05769 9.05867C9.20256 8.91381 9.20256 8.67894 9.05769 8.53407L5.52427 5.00065L9.05769 1.46723Z" fill="#0059FF"/>
</g>
</g>
</svg>
