<svg width="64" height="17" viewBox="0 0 64 17" fill="none" xmlns="http://www.w3.org/2000/svg">
<rect x="0.121582" y="2.45312" width="4.5783" height="11.4458" fill="#669BFF"/>
<rect x="11.5708" y="2.45312" width="3.63571" height="11.4458" transform="rotate(90 11.5708 2.45312)" fill="#669BFF"/>
<rect x="8.87549" y="7.30078" width="3.63571" height="8.75264" transform="rotate(90 8.87549 7.30078)" fill="#669BFF"/>
<rect x="4.69971" y="7.30078" width="3.63571" height="4.5783" transform="rotate(90 4.69971 7.30078)" fill="#0059FF"/>
<rect x="4.69971" y="2.45312" width="3.63571" height="4.5783" transform="rotate(90 4.69971 2.45312)" fill="#0059FF"/>
<path d="M16.5705 12.199C18.8054 14.434 22.429 14.434 24.6639 12.199L20.6172 8.15234L16.5705 12.199Z" fill="#669BFF"/>
<path d="M16.6174 12.2459C14.3825 10.011 14.3825 6.38746 16.6174 4.15253L20.6641 8.19922L16.6174 12.2459Z" fill="#0059FF"/>
<path d="M24.6639 12.199C26.8988 9.96411 26.8988 6.34058 24.6639 4.10566L20.6172 8.15234L24.6639 12.199Z" fill="#0059FF"/>
<path d="M16.6174 4.15253C18.8523 1.91761 22.4758 1.91761 24.7107 4.15253L20.6641 8.19922L16.6174 4.15253Z" fill="#669BFF"/>
<rect x="29.7104" y="2.45312" width="4.5783" height="11.4458" fill="#669BFF"/>
<rect x="41.1597" y="10.2617" width="3.63571" height="11.4458" transform="rotate(90 41.1597 10.2617)" fill="#669BFF"/>
<rect x="34.2886" y="10.2617" width="3.63571" height="4.5783" transform="rotate(90 34.2886 10.2617)" fill="#0059FF"/>
<rect x="42.1606" y="2.45312" width="4.5783" height="11.4458" fill="#669BFF"/>
<rect x="46.7388" y="2.45312" width="3.63571" height="4.5783" transform="rotate(90 46.7388 2.45312)" fill="#0059FF"/>
<path d="M51.7385 12.199C53.9734 14.434 57.5969 14.434 59.8318 12.199L55.7852 8.15234L51.7385 12.199Z" fill="#669BFF"/>
<path d="M51.7853 12.2459C49.5504 10.011 49.5504 6.38746 51.7853 4.15253L55.832 8.19922L51.7853 12.2459Z" fill="#0059FF"/>
<path d="M59.8318 12.199C62.0668 9.96411 62.0668 6.34058 59.8318 4.10566L55.7852 8.15234L59.8318 12.199Z" fill="#0059FF"/>
<path d="M51.7853 4.15253C54.0203 1.91761 57.6438 1.91761 59.8787 4.15253L55.832 8.19922L51.7853 4.15253Z" fill="#669BFF"/>
</svg>
