<svg width="182" height="94" viewBox="0 0 182 94" fill="none" xmlns="http://www.w3.org/2000/svg">
<rect x="0.000488281" y="53.1074" width="13.2263" height="33.0659" fill="#99BDFF"/>
<rect x="33.0664" y="53.1074" width="10.5033" height="33.0659" transform="rotate(90 33.0664 53.1074)" fill="#99BDFF"/>
<rect x="25.2859" y="67.1118" width="10.5033" height="25.2857" transform="rotate(90 25.2859 67.1118)" fill="#99BDFF"/>
<rect x="13.2263" y="67.1118" width="10.5033" height="13.2263" transform="rotate(90 13.2263 67.1118)" fill="#0059FF" style="mix-blend-mode:multiply"/>
<rect x="13.2263" y="53.1074" width="10.5033" height="13.2263" transform="rotate(90 13.2263 53.1074)" fill="#0059FF" style="mix-blend-mode:multiply"/>
<rect x="79.7476" y="53.1069" width="13.2263" height="33.0659" fill="#99BDFF"/>
<rect x="112.813" y="75.6694" width="10.5033" height="33.0659" transform="rotate(90 112.813 75.6694)" fill="#99BDFF"/>
<rect x="92.9741" y="75.6694" width="10.5033" height="13.2263" transform="rotate(90 92.9741 75.6694)" fill="#0059FF" style="mix-blend-mode:multiply"/>
<rect x="122.15" y="53.1069" width="13.2263" height="33.0659" fill="#99BDFF"/>
<rect x="135.376" y="53.1069" width="10.5033" height="13.2263" transform="rotate(90 135.376 53.1069)" fill="#0059FF" style="mix-blend-mode:multiply"/>
<path d="M44.6193 81.4288C51.0758 87.8853 61.5439 87.8853 68.0004 81.4288L56.3098 69.7383L44.6193 81.4288Z" fill="#99BDFF"/>
<path d="M44.7562 81.566C38.2997 75.1095 38.2997 64.6414 44.7562 58.1849L56.4468 69.8755L44.7562 81.566Z" fill="#0059FF"/>
<path d="M68.0004 81.4288C74.4569 74.9723 74.4569 64.5042 68.0004 58.0477L56.3098 69.7383L68.0004 81.4288Z" fill="#0059FF"/>
<path d="M44.7562 58.1849C51.2127 51.7284 61.6808 51.7284 68.1373 58.1849L56.4468 69.8755L44.7562 58.1849Z" fill="#99BDFF"/>
<path d="M146.929 81.4288C153.386 87.8853 163.854 87.8853 170.31 81.4288L158.62 69.7383L146.929 81.4288Z" fill="#99BDFF"/>
<path d="M147.066 81.5656C140.61 75.109 140.61 64.641 147.066 58.1844L158.757 69.875L147.066 81.5656Z" fill="#0059FF"/>
<path d="M170.31 81.4288C176.767 74.9723 176.767 64.5042 170.31 58.0477L158.62 69.7383L170.31 81.4288Z" fill="#0059FF"/>
<path d="M147.066 58.1844C153.523 51.7279 163.991 51.7279 170.447 58.1844L158.757 69.875L147.066 58.1844Z" fill="#99BDFF"/>
<rect x="43.5696" y="6.61328" width="13.2263" height="33.0659" fill="#99BDFF"/>
<rect x="76.6357" y="6.61328" width="10.5033" height="33.0659" transform="rotate(90 76.6357 6.61328)" fill="#99BDFF"/>
<rect x="68.8557" y="20.6177" width="10.5033" height="25.2857" transform="rotate(90 68.8557 20.6177)" fill="#99BDFF"/>
<rect x="56.7961" y="20.6177" width="10.5033" height="13.2263" transform="rotate(90 56.7961 20.6177)" fill="#0059FF" style="mix-blend-mode:multiply"/>
<rect x="56.7961" y="6.61328" width="10.5033" height="13.2263" transform="rotate(90 56.7961 6.61328)" fill="#0059FF" style="mix-blend-mode:multiply"/>
<path d="M120.087 34.9347C126.544 41.3912 137.012 41.3912 143.468 34.9347L131.778 23.2441L120.087 34.9347Z" fill="#99BDFF"/>
<path d="M120.225 35.0714C113.768 28.6149 113.768 18.1468 120.225 11.6903L131.916 23.3809L120.225 35.0714Z" fill="#0059FF"/>
<path d="M120.225 11.6903C126.681 5.2338 137.15 5.2338 143.606 11.6903L131.916 23.3809L120.225 11.6903Z" fill="#99BDFF"/>
<path d="M34.2334 29.3703C34.2334 23.6769 29.618 19.0615 23.9246 19.0615H0.000492096V39.6791H23.9246C29.618 39.6791 34.2334 35.0637 34.2334 29.3703V29.3703Z" fill="#B2CDFF"/>
<path d="M0.000488281 18.2836C0.000488281 11.8383 5.22546 6.61328 11.6708 6.61328H34.2334V29.9539H11.6708C5.22547 29.9539 0.000488281 24.7289 0.000488281 18.2836V18.2836Z" fill="#B2CDFF"/>
<path fill-rule="evenodd" clip-rule="evenodd" d="M34.1916 29.9538H11.6453C5.46139 29.9538 0.400857 25.1441 0.000488281 19.0615H23.899C29.5924 19.0615 34.2078 23.6769 34.2078 29.3703C34.2078 29.5661 34.2023 29.7607 34.1916 29.9538Z" fill="#0040FF"/>
<path d="M92.7312 6.63525V39.7011H76.7817L92.7312 6.63525Z" fill="#99BDFF"/>
<path d="M92.5848 6.61279V39.6787H108.534L92.5848 6.61279Z" fill="#0040FF"/>
</svg>
