<svg width="87" height="26" viewBox="0 0 87 26" fill="none" xmlns="http://www.w3.org/2000/svg">
<rect y="4.38281" width="6.89353" height="17.2338" fill="#7AA9FF"/>
<rect x="17.2402" y="4.38281" width="5.47428" height="17.2338" transform="rotate(90 17.2402 4.38281)" fill="#7AA9FF"/>
<rect x="13.1816" y="11.6816" width="5.47427" height="13.1788" transform="rotate(90 13.1816 11.6816)" fill="#7AA9FF"/>
<rect x="6.89258" y="11.6816" width="5.47427" height="6.89353" transform="rotate(90 6.89258 11.6816)" fill="#4787FF"/>
<rect x="6.89258" y="4.38281" width="5.47427" height="6.89353" transform="rotate(90 6.89258 4.38281)" fill="#4787FF"/>
<path d="M20.7683 19.0579C24.1334 22.423 29.5893 22.423 32.9544 19.0579L26.8613 12.9648L20.7683 19.0579Z" fill="#7AA9FF"/>
<path d="M20.8386 19.1282C17.4734 15.7631 17.4734 10.3072 20.8386 6.94208L26.9316 13.0352L20.8386 19.1282Z" fill="#4787FF"/>
<path d="M32.9544 19.0579C36.3195 15.6928 36.3195 10.2369 32.9544 6.87177L26.8613 12.9648L32.9544 19.0579Z" fill="#4787FF"/>
<path d="M20.8386 6.94208C24.2037 3.57696 29.6596 3.57696 33.0247 6.94208L26.9316 13.0352L20.8386 6.94208Z" fill="#7AA9FF"/>
<rect x="38.1797" y="4.38281" width="6.89353" height="17.2338" fill="#7AA9FF"/>
<rect x="55.4199" y="16.1406" width="5.47428" height="17.2338" transform="rotate(90 55.4199 16.1406)" fill="#7AA9FF"/>
<rect x="45.0723" y="16.1406" width="5.47427" height="6.89353" transform="rotate(90 45.0723 16.1406)" fill="#4787FF"/>
<rect x="57.668" y="4.38281" width="6.89353" height="17.2338" fill="#7AA9FF"/>
<rect x="64.5625" y="4.38281" width="5.47427" height="6.89353" transform="rotate(90 64.5625 4.38281)" fill="#4787FF"/>
<path d="M68.7214 19.0579C72.0865 22.423 77.5424 22.423 80.9075 19.0579L74.8145 12.9648L68.7214 19.0579Z" fill="#7AA9FF"/>
<path d="M68.7917 19.1282C65.4266 15.7631 65.4266 10.3072 68.7917 6.94208L74.8848 13.0352L68.7917 19.1282Z" fill="#4787FF"/>
<path d="M80.9075 19.0579C84.2726 15.6928 84.2726 10.2369 80.9075 6.87177L74.8145 12.9648L80.9075 19.0579Z" fill="#4787FF"/>
<path d="M68.7917 6.94208C72.1568 3.57696 77.6127 3.57696 80.9778 6.94208L74.8848 13.0352L68.7917 6.94208Z" fill="#7AA9FF"/>
</svg>
