<svg width="42" height="17" viewBox="0 0 42 17" fill="none" xmlns="http://www.w3.org/2000/svg">
<rect x="0.205078" y="2.45312" width="4.5783" height="11.4458" fill="#669BFF"/>
<rect x="11.6543" y="10.2617" width="3.63571" height="11.4458" transform="rotate(90 11.6543 10.2617)" fill="#669BFF"/>
<rect x="4.7832" y="10.2617" width="3.63571" height="4.5783" transform="rotate(90 4.7832 10.2617)" fill="#0059FF"/>
<path d="M16.654 12.199C18.8889 14.434 22.5124 14.434 24.7474 12.199L20.7007 8.15234L16.654 12.199Z" fill="#669BFF"/>
<path d="M16.7009 12.2459C14.466 10.011 14.466 6.38746 16.7009 4.15253L20.7476 8.19922L16.7009 12.2459Z" fill="#0059FF"/>
<path d="M24.7474 12.199C26.9823 9.96411 26.9823 6.34058 24.7474 4.10566L20.7007 8.15234L24.7474 12.199Z" fill="#0059FF"/>
<path d="M16.7009 4.15253C18.9358 1.91761 22.5593 1.91761 24.7942 4.15253L20.7476 8.19922L16.7009 4.15253Z" fill="#669BFF"/>
<path d="M41.7949 8.17578C41.7949 9.70475 41.2112 11.176 40.163 12.2892C39.1148 13.4023 37.6812 14.0732 36.155 14.165C34.6287 14.2567 33.1251 13.7623 31.9511 12.7828C30.7771 11.8033 30.0213 10.4125 29.8381 8.89456C29.655 7.37659 30.0582 5.84597 30.9655 4.6153C31.8728 3.38463 33.2158 2.54678 34.72 2.27285C36.2242 1.99893 37.7763 2.30962 39.0592 3.14145C40.3421 3.97328 41.259 5.2635 41.6227 6.74858L35.7949 8.17578H41.7949Z" fill="#669BFF"/>
<rect x="35.7949" y="8.17578" width="6" height="6" fill="#0059FF"/>
<path d="M29.7949 8.12378C29.7949 11.447 32.4812 14.1411 35.7949 14.1411L35.7949 8.12378L29.7949 8.12378Z" fill="#669BFF"/>
<path d="M29.7949 8.19287C29.7949 4.86962 32.4812 2.17559 35.7949 2.17559L35.7949 8.19287L29.7949 8.19287Z" fill="#0059FF"/>
</svg>
