<svg xmlns="http://www.w3.org/2000/svg" width="22" height="22" viewBox="0 0 22 22" fill="none">
  <path fill-rule="evenodd" clip-rule="evenodd" d="M11 0.25C5.06294 0.25 0.25 5.06294 0.25 11C0.25 16.9371 5.06294 21.75 11 21.75C16.9371 21.75 21.75 16.9371 21.75 11C21.75 5.06294 16.9371 0.25 11 0.25ZM9.2998 7.75C9.71402 7.75 10.0498 8.08579 10.0498 8.5V13.5C10.0498 13.9142 9.71402 14.25 9.2998 14.25C8.88559 14.25 8.5498 13.9142 8.5498 13.5V8.5C8.5498 8.08579 8.88559 7.75 9.2998 7.75ZM13.5498 8.5C13.5498 8.08579 13.214 7.75 12.7998 7.75C12.3856 7.75 12.0498 8.08579 12.0498 8.5V13.5C12.0498 13.9142 12.3856 14.25 12.7998 14.25C13.214 14.25 13.5498 13.9142 13.5498 13.5V8.5Z" fill="white"/>
</svg>