<svg width="55" height="54" viewBox="0 0 55 54" fill="none" xmlns="http://www.w3.org/2000/svg">
<g filter="url(#filter0_d_318_2080)">
<path d="M3.71925 28.2807L10.9522 21.0478C11.4582 20.5418 12.1728 20.3036 12.881 20.4048L19.5136 21.0344C19.5824 21.0409 19.624 21.1136 19.5947 21.1762L14.3311 32.4554C14.1504 32.8426 13.7436 33.0722 13.3187 33.0268L5.00512 32.1383C3.1508 31.8734 2.39474 29.6053 3.71925 28.2807Z" fill="white"/>
</g>
<g filter="url(#filter1_d_318_2080)">
<path d="M26.2226 50.7834L33.4556 43.5504C33.9615 43.0445 34.1997 42.3299 34.0986 41.6216L33.469 34.9891C33.4625 34.9203 33.3898 34.8787 33.3272 34.9079L22.048 40.1715C21.6608 40.3522 21.4311 40.7591 21.4766 41.184L22.365 49.4975C22.6299 51.3519 24.8981 52.1079 26.2226 50.7834Z" fill="white"/>
</g>
<g filter="url(#filter2_bdi_318_2080)">
<path d="M13.9195 35.2664L19.236 40.5829C20.5441 41.8911 22.5094 42.2763 24.1705 41.4619C28.1086 39.5313 35.3488 35.5815 39.884 30.6917C44.9393 25.241 46.8197 16.6088 47.5157 11.2871C47.8503 8.72889 45.7735 6.65211 43.2153 6.98669C37.8935 7.6827 29.2614 9.56305 23.8107 14.6184C18.9208 19.1535 14.9711 26.3938 13.0405 30.3319C12.2261 31.993 12.6113 33.9583 13.9195 35.2664Z" fill="url(#paint0_linear_318_2080)" shape-rendering="crispEdges"/>
<path d="M19.3243 40.4945L14.0079 35.178C12.7351 33.9053 12.3633 31.997 13.1527 30.3869C15.0827 26.4501 19.0241 19.2283 23.8957 14.71C29.3155 9.68329 37.9127 7.80626 43.2315 7.11063C45.7083 6.7867 47.7157 8.79409 47.3918 11.2709C46.6961 16.5897 44.8191 25.1868 39.7924 30.6067C35.2741 35.4783 28.0523 39.4197 24.1155 41.3497C22.5054 42.139 20.5971 41.7673 19.3243 40.4945Z" stroke="url(#paint1_linear_318_2080)" stroke-opacity="0.7" stroke-width="0.25" shape-rendering="crispEdges"/>
</g>
<g filter="url(#filter3_d_318_2080)">
<path d="M29.4308 18.637C27.6554 20.4124 27.6554 23.2909 29.4308 25.0664C31.2063 26.8418 34.0848 26.8418 35.8602 25.0664C37.6356 23.2909 37.6356 20.4124 35.8602 18.637C34.0848 16.8616 31.2063 16.8616 29.4308 18.637Z" fill="white"/>
</g>
<g filter="url(#filter4_d_318_2080)">
<path fill-rule="evenodd" clip-rule="evenodd" d="M11.7514 42.7463L5.32211 49.1756L11.7514 42.7463Z" fill="white"/>
<path fill-rule="evenodd" clip-rule="evenodd" d="M6.92944 37.9243L3.71478 41.139L6.92944 37.9243Z" fill="white"/>
<path fill-rule="evenodd" clip-rule="evenodd" d="M16.5734 47.5683L13.3588 50.783L16.5734 47.5683Z" fill="white"/>
<path d="M11.7514 42.7463L5.32211 49.1756M6.92944 37.9243L3.71478 41.139M16.5734 47.5683L13.3588 50.783" stroke="#CCDEFF" stroke-width="1.5" stroke-linecap="round"/>
</g>
<defs>
<filter id="filter0_d_318_2080" x="0.851025" y="18.1818" width="20.9532" height="17.0506" filterUnits="userSpaceOnUse" color-interpolation-filters="sRGB">
<feFlood flood-opacity="0" result="BackgroundImageFix"/>
<feColorMatrix in="SourceAlpha" type="matrix" values="0 0 0 0 0 0 0 0 0 0 0 0 0 0 0 0 0 0 127 0" result="hardAlpha"/>
<feOffset/>
<feGaussianBlur stdDeviation="1.1"/>
<feComposite in2="hardAlpha" operator="out"/>
<feColorMatrix type="matrix" values="0 0 0 0 0.0834954 0 0 0 0 0.271283 0 0 0 0 0.901416 0 0 0 0.35 0"/>
<feBlend mode="normal" in2="BackgroundImageFix" result="effect1_dropShadow_318_2080"/>
<feBlend mode="normal" in="SourceGraphic" in2="effect1_dropShadow_318_2080" result="shape"/>
</filter>
<filter id="filter1_d_318_2080" x="19.2709" y="32.6984" width="17.0504" height="20.9532" filterUnits="userSpaceOnUse" color-interpolation-filters="sRGB">
<feFlood flood-opacity="0" result="BackgroundImageFix"/>
<feColorMatrix in="SourceAlpha" type="matrix" values="0 0 0 0 0 0 0 0 0 0 0 0 0 0 0 0 0 0 127 0" result="hardAlpha"/>
<feOffset/>
<feGaussianBlur stdDeviation="1.1"/>
<feComposite in2="hardAlpha" operator="out"/>
<feColorMatrix type="matrix" values="0 0 0 0 0.0834954 0 0 0 0 0.271283 0 0 0 0 0.901416 0 0 0 0.35 0"/>
<feBlend mode="normal" in2="BackgroundImageFix" result="effect1_dropShadow_318_2080"/>
<feBlend mode="normal" in="SourceGraphic" in2="effect1_dropShadow_318_2080" result="shape"/>
</filter>
<filter id="filter2_bdi_318_2080" x="8.61426" y="2.95117" width="42.937" height="42.9368" filterUnits="userSpaceOnUse" color-interpolation-filters="sRGB">
<feFlood flood-opacity="0" result="BackgroundImageFix"/>
<feGaussianBlur in="BackgroundImageFix" stdDeviation="1"/>
<feComposite in2="SourceAlpha" operator="in" result="effect1_backgroundBlur_318_2080"/>
<feColorMatrix in="SourceAlpha" type="matrix" values="0 0 0 0 0 0 0 0 0 0 0 0 0 0 0 0 0 0 127 0" result="hardAlpha"/>
<feOffset/>
<feGaussianBlur stdDeviation="2"/>
<feComposite in2="hardAlpha" operator="out"/>
<feColorMatrix type="matrix" values="0 0 0 0 0.231373 0 0 0 0 0.407843 0 0 0 0 1 0 0 0 0.1 0"/>
<feBlend mode="normal" in2="effect1_backgroundBlur_318_2080" result="effect2_dropShadow_318_2080"/>
<feBlend mode="normal" in="SourceGraphic" in2="effect2_dropShadow_318_2080" result="shape"/>
<feColorMatrix in="SourceAlpha" type="matrix" values="0 0 0 0 0 0 0 0 0 0 0 0 0 0 0 0 0 0 127 0" result="hardAlpha"/>
<feOffset/>
<feGaussianBlur stdDeviation="1.5"/>
<feComposite in2="hardAlpha" operator="arithmetic" k2="-1" k3="1"/>
<feColorMatrix type="matrix" values="0 0 0 0 0.231373 0 0 0 0 0.407843 0 0 0 0 1 0 0 0 0.38 0"/>
<feBlend mode="normal" in2="shape" result="effect3_innerShadow_318_2080"/>
</filter>
<filter id="filter3_d_318_2080" x="26.0994" y="15.3054" width="13.0923" height="13.0925" filterUnits="userSpaceOnUse" color-interpolation-filters="sRGB">
<feFlood flood-opacity="0" result="BackgroundImageFix"/>
<feColorMatrix in="SourceAlpha" type="matrix" values="0 0 0 0 0 0 0 0 0 0 0 0 0 0 0 0 0 0 127 0" result="hardAlpha"/>
<feOffset/>
<feGaussianBlur stdDeviation="1"/>
<feComposite in2="hardAlpha" operator="out"/>
<feColorMatrix type="matrix" values="0 0 0 0 0.231373 0 0 0 0 0.407843 0 0 0 0 1 0 0 0 0.35 0"/>
<feBlend mode="normal" in2="BackgroundImageFix" result="effect1_dropShadow_318_2080"/>
<feBlend mode="normal" in="SourceGraphic" in2="effect1_dropShadow_318_2080" result="shape"/>
</filter>
<filter id="filter4_d_318_2080" x="0.764844" y="34.9743" width="18.7586" height="18.7586" filterUnits="userSpaceOnUse" color-interpolation-filters="sRGB">
<feFlood flood-opacity="0" result="BackgroundImageFix"/>
<feColorMatrix in="SourceAlpha" type="matrix" values="0 0 0 0 0 0 0 0 0 0 0 0 0 0 0 0 0 0 127 0" result="hardAlpha"/>
<feOffset/>
<feGaussianBlur stdDeviation="1.1"/>
<feComposite in2="hardAlpha" operator="out"/>
<feColorMatrix type="matrix" values="0 0 0 0 0.0834954 0 0 0 0 0.271283 0 0 0 0 0.901416 0 0 0 0.35 0"/>
<feBlend mode="normal" in2="BackgroundImageFix" result="effect1_dropShadow_318_2080"/>
<feBlend mode="normal" in="SourceGraphic" in2="effect1_dropShadow_318_2080" result="shape"/>
</filter>
<linearGradient id="paint0_linear_318_2080" x1="27.7947" y1="43.4338" x2="24.8601" y2="8.51243" gradientUnits="userSpaceOnUse">
<stop stop-color="#2772FF"/>
<stop offset="0.436693" stop-color="#83ADFD" stop-opacity="0.739323"/>
<stop offset="1" stop-color="white" stop-opacity="0.64"/>
</linearGradient>
<linearGradient id="paint1_linear_318_2080" x1="34.322" y1="4.88558" x2="45.1579" y2="34.3285" gradientUnits="userSpaceOnUse">
<stop stop-color="white" stop-opacity="0.15"/>
<stop offset="1" stop-color="white" stop-opacity="0.44"/>
</linearGradient>
</defs>
</svg>
