<svg width="24" height="25" viewBox="0 0 24 25" fill="none" xmlns="http://www.w3.org/2000/svg">
<path d="M10.3636 3.35156C8.90722 3.35156 7.48354 3.78343 6.2726 4.59255C5.06167 5.40167 4.11786 6.55171 3.56052 7.89723C3.00319 9.24275 2.85737 10.7233 3.14149 12.1517C3.42562 13.5801 4.12693 14.8922 5.15675 15.922C6.18657 16.9518 7.49863 17.6531 8.92703 17.9373C10.3554 18.2214 11.836 18.0756 13.1815 17.5182C14.527 16.9609 15.6771 16.0171 16.4862 14.8061C17.2953 13.5952 17.7272 12.1715 17.7272 10.7152C17.7271 8.76225 16.9512 6.88936 15.5703 5.50845C14.1894 4.12753 12.3165 3.35169 10.3636 3.35156Z" stroke="#171717" stroke-miterlimit="10"/>
<path d="M15.8574 16.209L21.0001 21.3516" stroke="#171717" stroke-miterlimit="10" stroke-linecap="round"/>
</svg>
