<svg xmlns="http://www.w3.org/2000/svg" width="22" height="22" viewBox="0 0 22 22" fill="none">
  <circle cx="3" cy="3" r="3" transform="matrix(-1 0 0 1 14 7.875)" stroke="black" stroke-width="1.5"/>
  <path d="M15.4996 3.8125L15.8746 3.16298L15.8746 3.16298L15.4996 3.8125ZM15.4995 17.9371L15.1245 17.2876L15.1245 17.2876L15.4995 17.9371ZM6.4995 17.9371L6.1245 18.5867L6.1245 18.5867L6.4995 17.9371ZM6.4995 3.8125L6.8745 4.46202L6.4995 3.8125ZM7.92244 1.89008L7.19174 1.72101L7.92244 1.89008ZM4.31134 17.6152L4.13916 16.8852L4.31134 17.6152ZM3.40246 17.378L3.972 16.89L3.40246 17.378ZM8.53873 20.57L8.7227 19.8429L8.53873 20.57ZM7.9225 19.8598L8.65321 19.6908L7.9225 19.8598ZM14.0765 19.8598L13.3458 19.6908L14.0765 19.8598ZM13.4603 20.5699L13.6443 21.297L13.4603 20.5699ZM18.5965 17.378L18.0269 16.89L18.5965 17.378ZM20.4432 7.57789L21.1513 7.33069L20.4432 7.57789ZM20.093 8.55852L19.6161 7.97969L20.093 8.55852ZM17.6875 4.1345L17.5153 3.40452L17.6875 4.1345ZM20.093 13.1915L19.6161 13.7703L20.093 13.1915ZM20.4432 14.1721L19.7351 13.9249L20.4432 14.1721ZM14.0766 1.89011L13.3459 2.05918L14.0766 1.89011ZM13.3459 2.05918C13.5717 3.03505 14.1874 3.92092 15.1246 4.46202L15.8746 3.16298C15.3122 2.83829 14.9433 2.30881 14.8073 1.72103L13.3459 2.05918ZM15.1246 4.46202C15.9855 4.95908 16.9633 5.0758 17.8596 4.86449L17.5153 3.40452C16.9762 3.53163 16.3916 3.4615 15.8746 3.16298L15.1246 4.46202ZM21.1513 7.33069C20.7057 6.05437 20.0266 4.88837 19.1657 3.88371L18.0267 4.85971C18.7682 5.72504 19.3522 6.72828 19.7351 7.82508L21.1513 7.33069ZM19.7495 10.875C19.7495 10.1756 20.0676 9.55123 20.57 9.13736L19.6161 7.97969C18.7828 8.66628 18.2495 9.70867 18.2495 10.875H19.7495ZM20.57 12.6126C20.0676 12.1988 19.7495 11.5744 19.7495 10.875H18.2495C18.2495 12.0413 18.7828 13.0837 19.6161 13.7703L20.57 12.6126ZM19.166 17.866C20.0268 16.8614 20.7057 15.6955 21.1513 14.4193L19.7351 13.9249C19.3522 15.0216 18.7683 16.0247 18.0269 16.89L19.166 17.866ZM15.8745 18.5867C16.3916 18.2881 16.9763 18.218 17.5155 18.3452L17.8598 16.8852C16.9634 16.6738 15.9855 16.7905 15.1245 17.2876L15.8745 18.5867ZM14.8072 20.0288C14.9432 19.441 15.3121 18.9114 15.8745 18.5867L15.1245 17.2876C14.1872 17.8288 13.5716 18.7148 13.3458 19.6908L14.8072 20.0288ZM10.9995 21.625C11.9112 21.625 12.7974 21.5113 13.6443 21.297L13.2763 19.8429C12.5487 20.027 11.7861 20.125 10.9995 20.125V21.625ZM8.35475 21.2971C9.20161 21.5113 10.0878 21.625 10.9995 21.625V20.125C10.2129 20.125 9.45027 20.027 8.7227 19.8429L8.35475 21.2971ZM6.1245 18.5867C6.68694 18.9114 7.05582 19.441 7.19179 20.0288L8.65321 19.6908C8.42747 18.7148 7.81183 17.8288 6.8745 17.2876L6.1245 18.5867ZM4.48352 18.3452C5.02272 18.218 5.60738 18.2881 6.1245 18.5867L6.8745 17.2876C6.01346 16.7905 5.03551 16.6738 4.13916 16.8852L4.48352 18.3452ZM0.84767 14.4193C1.29319 15.6955 1.97218 16.8614 2.83292 17.866L3.972 16.89C3.23064 16.0248 2.64671 15.0216 2.26385 13.9249L0.84767 14.4193ZM2.24949 10.875C2.24949 11.5744 1.9313 12.1988 1.42898 12.6126L2.38281 13.7703C3.21613 13.0837 3.74949 12.0413 3.74949 10.875H2.24949ZM1.42898 9.13735C1.9313 9.55122 2.24949 10.1756 2.24949 10.875H3.74949C3.74949 9.70866 3.21613 8.66626 2.38281 7.97968L1.42898 9.13735ZM2.83321 3.88367C1.97234 4.88834 1.29325 6.05434 0.847672 7.33067L2.26385 7.82507C2.64675 6.72826 3.23077 5.72501 3.97224 4.85968L2.83321 3.88367ZM6.1245 3.16298C5.60743 3.46151 5.02282 3.53164 4.48365 3.4045L4.13939 4.86446C5.03568 5.07581 6.01354 4.9591 6.8745 4.46202L6.1245 3.16298ZM7.19174 1.72101C7.05574 2.30879 6.68688 2.83829 6.1245 3.16298L6.8745 4.46202C7.81172 3.92091 8.42733 3.03503 8.65313 2.05915L7.19174 1.72101ZM10.9995 0.125C10.0878 0.125 9.20155 0.23866 8.35467 0.452959L8.72263 1.90713C9.45022 1.72302 10.2129 1.625 10.9995 1.625V0.125ZM13.6444 0.453005C12.7975 0.238676 11.9112 0.125 10.9995 0.125V1.625C11.7861 1.625 12.5488 1.72303 13.2764 1.90717L13.6444 0.453005ZM8.65313 2.05915C8.66875 1.99168 8.69519 1.94409 8.71572 1.91913C8.73334 1.89769 8.73648 1.90362 8.72263 1.90713L8.35467 0.452959C7.66346 0.627863 7.30656 1.2248 7.19174 1.72101L8.65313 2.05915ZM2.38281 7.97968C2.32193 7.92951 2.28654 7.87524 2.27234 7.83894C2.2604 7.80841 2.26919 7.80978 2.26385 7.82507L0.847672 7.33067C0.581658 8.09266 0.993813 8.7788 1.42898 9.13735L2.38281 7.97968ZM4.13916 16.8852C4.07193 16.9011 4.01766 16.8985 3.9862 16.8912C3.95914 16.8849 3.96286 16.8794 3.972 16.89L2.83292 17.866C3.29597 18.4064 3.98794 18.4621 4.48352 18.3452L4.13916 16.8852ZM8.7227 19.8429C8.73656 19.8464 8.73342 19.8523 8.71579 19.8309C8.69526 19.8059 8.66881 19.7583 8.65321 19.6908L7.19179 20.0288C7.30656 20.5251 7.66347 21.1221 8.35475 21.2971L8.7227 19.8429ZM13.3458 19.6908C13.3302 19.7583 13.3038 19.8059 13.2832 19.8309C13.2656 19.8523 13.2625 19.8464 13.2763 19.8429L13.6443 21.297C14.3356 21.1221 14.6925 20.5251 14.8072 20.0288L13.3458 19.6908ZM18.0269 16.89C18.0361 16.8793 18.0398 16.8848 18.0127 16.8912C17.9813 16.8985 17.927 16.9011 17.8598 16.8852L17.5155 18.3452C18.011 18.462 18.703 18.4064 19.166 17.866L18.0269 16.89ZM19.7351 7.82508C19.7297 7.80979 19.7385 7.80843 19.7266 7.83895C19.7124 7.87525 19.677 7.92953 19.6161 7.97969L20.57 9.13736C21.0051 8.77881 21.4173 8.09267 21.1513 7.33069L19.7351 7.82508ZM2.26385 13.9249C2.26919 13.9402 2.2604 13.9416 2.27234 13.9111C2.28654 13.8748 2.32193 13.8205 2.38281 13.7703L1.42898 12.6126C0.993812 12.9712 0.581657 13.6573 0.84767 14.4193L2.26385 13.9249ZM17.8596 4.86449C17.9268 4.84864 17.9811 4.85124 18.0125 4.85857C18.0396 4.86487 18.0358 4.87037 18.0267 4.85971L19.1657 3.88371C18.7027 3.34335 18.0109 3.28769 17.5153 3.40452L17.8596 4.86449ZM3.97224 4.85968C3.96311 4.87034 3.95939 4.86484 3.98644 4.85854C4.0179 4.85121 4.07216 4.84861 4.13939 4.86446L4.48365 3.4045C3.98812 3.28765 3.29623 3.3433 2.83321 3.88367L3.97224 4.85968ZM19.6161 13.7703C19.677 13.8205 19.7124 13.8747 19.7266 13.911C19.7385 13.9416 19.7297 13.9402 19.7351 13.9249L21.1513 14.4193C21.4173 13.6573 21.0051 12.9712 20.57 12.6126L19.6161 13.7703ZM14.8073 1.72103C14.6925 1.22483 14.3356 0.627915 13.6444 0.453005L13.2764 1.90717C13.2626 1.90366 13.2657 1.89773 13.2834 1.91917C13.3039 1.94413 13.3303 1.99172 13.3459 2.05918L14.8073 1.72103Z" fill="black"/>
</svg>