<svg width="24" height="24" viewBox="0 0 24 24" fill="none" xmlns="http://www.w3.org/2000/svg">
<circle cx="3" cy="3" r="3" transform="matrix(-1 0 0 1 15 9)" stroke="black" stroke-width="1.5"/>
<path d="M16.4996 4.9375L16.8746 4.28798L16.8746 4.28798L16.4996 4.9375ZM16.4995 19.0621L16.1245 18.4126L16.4995 19.0621ZM7.4995 19.0621L7.1245 19.7117H7.1245L7.4995 19.0621ZM7.4995 4.9375L7.8745 5.58702L7.4995 4.9375ZM8.92244 3.01508L8.19174 2.84601L8.92244 3.01508ZM5.31134 18.7402L5.13916 18.0102L5.31134 18.7402ZM4.40246 18.503L4.97199 18.015L4.40246 18.503ZM9.53872 21.695L9.7227 20.9679L9.53872 21.695ZM8.9225 20.9848L9.65321 20.8158L8.9225 20.9848ZM15.0765 20.9848L14.3458 20.8158L15.0765 20.9848ZM14.4603 21.695L14.6443 22.422L14.4603 21.695ZM19.5965 18.503L19.0269 18.015L19.5965 18.503ZM21.4432 8.70289L22.1513 8.45569L21.4432 8.70289ZM21.093 9.68352L20.6161 9.10469L21.093 9.68352ZM18.6875 5.2595L18.5153 4.52952L18.6875 5.2595ZM21.093 14.3165L20.6161 14.8953L21.093 14.3165ZM21.4432 15.2971L20.7351 15.0499L21.4432 15.2971ZM15.0766 3.01511L14.3459 3.18418L15.0766 3.01511ZM14.3459 3.18418C14.5717 4.16005 15.1874 5.04592 16.1246 5.58702L16.8746 4.28798C16.3122 3.96329 15.9433 3.43381 15.8073 2.84603L14.3459 3.18418ZM16.1246 5.58702C16.9855 6.08408 17.9633 6.2008 18.8596 5.98949L18.5153 4.52952C17.9762 4.65663 17.3916 4.5865 16.8746 4.28798L16.1246 5.58702ZM22.1513 8.45569C21.7057 7.17937 21.0266 6.01337 20.1657 5.00871L19.0267 5.98471C19.7682 6.85004 20.3522 7.85328 20.7351 8.95008L22.1513 8.45569ZM20.7495 12C20.7495 11.3006 21.0676 10.6762 21.57 10.2624L20.6161 9.10469C19.7828 9.79128 19.2495 10.8337 19.2495 12H20.7495ZM21.57 13.7376C21.0676 13.3238 20.7495 12.6994 20.7495 12H19.2495C19.2495 13.1663 19.7828 14.2087 20.6161 14.8953L21.57 13.7376ZM20.166 18.991C21.0268 17.9864 21.7057 16.8205 22.1513 15.5443L20.7351 15.0499C20.3522 16.1466 19.7683 17.1497 19.0269 18.015L20.166 18.991ZM16.8745 19.7117C17.3916 19.4131 17.9763 19.343 18.5155 19.4702L18.8598 18.0102C17.9634 17.7988 16.9855 17.9155 16.1245 18.4126L16.8745 19.7117ZM15.8072 21.1538C15.9432 20.566 16.3121 20.0364 16.8745 19.7117L16.1245 18.4126C15.1872 18.9538 14.5716 19.8398 14.3458 20.8158L15.8072 21.1538ZM11.9995 22.75C12.9112 22.75 13.7974 22.6363 14.6443 22.422L14.2763 20.9679C13.5487 21.152 12.7861 21.25 11.9995 21.25V22.75ZM9.35475 22.4221C10.2016 22.6363 11.0878 22.75 11.9995 22.75V21.25C11.2129 21.25 10.4503 21.152 9.7227 20.9679L9.35475 22.4221ZM7.1245 19.7117C7.68694 20.0364 8.05582 20.566 8.19179 21.1538L9.65321 20.8158C9.42747 19.8398 8.81183 18.9538 7.8745 18.4126L7.1245 19.7117ZM5.48352 19.4702C6.02272 19.343 6.60738 19.4131 7.1245 19.7117L7.8745 18.4126C7.01346 17.9155 6.03551 17.7988 5.13916 18.0102L5.48352 19.4702ZM1.84767 15.5443C2.29319 16.8205 2.97218 17.9864 3.83292 18.991L4.97199 18.015C4.23064 17.1498 3.64671 16.1466 3.26385 15.0499L1.84767 15.5443ZM3.24949 12C3.24949 12.6994 2.9313 13.3238 2.42898 13.7376L3.38281 14.8953C4.21613 14.2087 4.74949 13.1663 4.74949 12H3.24949ZM2.42898 10.2623C2.9313 10.6762 3.24949 11.3006 3.24949 12H4.74949C4.74949 10.8337 4.21613 9.79126 3.38281 9.10468L2.42898 10.2623ZM3.83321 5.00867C2.97233 6.01334 2.29325 7.17934 1.84767 8.45567L3.26385 8.95007C3.64675 7.85326 4.23077 6.85001 4.97224 5.98468L3.83321 5.00867ZM7.1245 4.28798C6.60743 4.58651 6.02282 4.65664 5.48365 4.5295L5.13939 5.98946C6.03568 6.20081 7.01354 6.0841 7.8745 5.58702L7.1245 4.28798ZM8.19174 2.84601C8.05574 3.43379 7.68688 3.96329 7.1245 4.28798L7.8745 5.58702C8.81172 5.04591 9.42733 4.16003 9.65313 3.18415L8.19174 2.84601ZM11.9995 1.25C11.0878 1.25 10.2016 1.36366 9.35467 1.57796L9.72263 3.03213C10.4502 2.84802 11.2129 2.75 11.9995 2.75V1.25ZM14.6444 1.578C13.7975 1.36368 12.9112 1.25 11.9995 1.25V2.75C12.7861 2.75 13.5488 2.84803 14.2764 3.03217L14.6444 1.578ZM9.65313 3.18415C9.66874 3.11668 9.69519 3.06909 9.71572 3.04413C9.73334 3.02269 9.73648 3.02862 9.72263 3.03213L9.35467 1.57796C8.66346 1.75286 8.30656 2.3498 8.19174 2.84601L9.65313 3.18415ZM3.38281 9.10468C3.32193 9.05451 3.28654 9.00024 3.27234 8.96394C3.2604 8.93341 3.26919 8.93478 3.26385 8.95007L1.84767 8.45567C1.58166 9.21766 1.99381 9.9038 2.42898 10.2623L3.38281 9.10468ZM5.13916 18.0102C5.07193 18.0261 5.01766 18.0235 4.9862 18.0162C4.95914 18.0099 4.96286 18.0044 4.97199 18.015L3.83292 18.991C4.29597 19.5314 4.98794 19.5871 5.48352 19.4702L5.13916 18.0102ZM9.7227 20.9679C9.73656 20.9714 9.73341 20.9773 9.71579 20.9559C9.69526 20.9309 9.66881 20.8833 9.65321 20.8158L8.19179 21.1538C8.30656 21.6501 8.66347 22.2471 9.35475 22.4221L9.7227 20.9679ZM14.3458 20.8158C14.3302 20.8833 14.3038 20.9309 14.2832 20.9559C14.2656 20.9773 14.2625 20.9714 14.2763 20.9679L14.6443 22.422C15.3356 22.2471 15.6925 21.6501 15.8072 21.1538L14.3458 20.8158ZM19.0269 18.015C19.0361 18.0043 19.0398 18.0098 19.0127 18.0161C18.9813 18.0235 18.927 18.0261 18.8598 18.0102L18.5155 19.4702C19.011 19.587 19.703 19.5314 20.166 18.991L19.0269 18.015ZM20.7351 8.95008C20.7297 8.93479 20.7385 8.93343 20.7266 8.96395C20.7124 9.00025 20.677 9.05452 20.6161 9.10469L21.57 10.2624C22.0051 9.90381 22.4173 9.21767 22.1513 8.45569L20.7351 8.95008ZM3.26385 15.0499C3.26919 15.0652 3.2604 15.0666 3.27234 15.0361C3.28654 14.9998 3.32193 14.9455 3.38281 14.8953L2.42898 13.7376C1.99381 14.0962 1.58166 14.7823 1.84767 15.5443L3.26385 15.0499ZM18.8596 5.98949C18.9268 5.97364 18.981 5.97624 19.0125 5.98357C19.0396 5.98987 19.0358 5.99537 19.0267 5.98471L20.1657 5.00871C19.7027 4.46835 19.0109 4.41269 18.5153 4.52952L18.8596 5.98949ZM4.97224 5.98468C4.96311 5.99534 4.95939 5.98984 4.98644 5.98354C5.0179 5.97621 5.07216 5.97361 5.13939 5.98946L5.48365 4.5295C4.98812 4.41265 4.29623 4.4683 3.83321 5.00867L4.97224 5.98468ZM20.6161 14.8953C20.677 14.9455 20.7124 14.9997 20.7266 15.036C20.7385 15.0666 20.7297 15.0652 20.7351 15.0499L22.1513 15.5443C22.4173 14.7823 22.0051 14.0962 21.57 13.7376L20.6161 14.8953ZM15.8073 2.84603C15.6925 2.34983 15.3356 1.75292 14.6444 1.578L14.2764 3.03217C14.2626 3.02866 14.2657 3.02273 14.2834 3.04417C14.3039 3.06913 14.3303 3.11672 14.3459 3.18418L15.8073 2.84603Z" fill="black"/>
</svg>

