<svg xmlns="http://www.w3.org/2000/svg" width="20" height="20" viewBox="0 0 20 20" fill="none">
  <path d="M2.62469 17.7L2.24988 17.2315H2.24988L2.62469 17.7ZM5.23143 15.6147L4.85661 15.1461L5.23143 15.6147ZM5.25417 15.5448L5.16542 16.1382L5.25417 15.5448ZM1.01061 10.9284L0.411869 10.9672L1.01061 10.9284ZM1.6 7C1.6 4.56995 3.56995 2.6 6 2.6V1.4C2.90721 1.4 0.4 3.9072 0.4 7H1.6ZM1.6 10.6V7H0.4V10.6H1.6ZM1.60935 10.8896C1.60315 10.7939 1.6 10.6974 1.6 10.6H0.4C0.4 10.7233 0.403994 10.8457 0.411869 10.9672L1.60935 10.8896ZM1.6 16.9192V10.9327H0.4V16.9192H1.6ZM2.24988 17.2315C1.98797 17.4411 1.6 17.2546 1.6 16.9192H0.4C0.4 18.2608 1.95189 19.0067 2.99951 18.1686L2.24988 17.2315ZM4.85661 15.1461L2.24988 17.2315L2.99951 18.1686L5.60625 16.0832L4.85661 15.1461ZM6 15C5.77635 15 5.55696 14.9834 5.34292 14.9514L5.16542 16.1382C5.43802 16.1789 5.71674 16.2 6 16.2V15ZM13 15H6V16.2H13V15ZM17.4 10.6C17.4 13.0301 15.4301 15 13 15V16.2C16.0928 16.2 18.6 13.6928 18.6 10.6H17.4ZM17.4 7V10.6H18.6V7H17.4ZM13 2.6C15.4301 2.6 17.4 4.56995 17.4 7H18.6C18.6 3.9072 16.0928 1.4 13 1.4V2.6ZM6 2.6H13V1.4H6V2.6ZM5.60625 16.0832C5.88668 15.8588 5.91955 15.4443 5.67797 15.1786L4.79004 15.9858C4.56579 15.7391 4.5963 15.3544 4.85661 15.1461L5.60625 16.0832ZM1.44927 10.527C1.07847 10.1191 0.4 10.3815 0.4 10.9327H1.6C1.6 11.4783 0.928396 11.738 0.561338 11.3342L1.44927 10.527ZM5.67797 15.1786C6.04933 15.5871 5.69366 16.2172 5.16542 16.1382L5.34292 14.9514C4.77287 14.8661 4.39024 15.546 4.79004 15.9858L5.67797 15.1786ZM0.411869 10.9672C0.3754 10.4047 1.06861 10.1083 1.44927 10.527L0.561338 11.3342C0.945881 11.7572 1.6462 11.4578 1.60935 10.8896L0.411869 10.9672Z" fill="#8A8A8A"/>
  <circle cx="5.29297" cy="8.84277" r="1.0625" fill="#8A8A8A"/>
  <circle cx="9.54297" cy="8.84277" r="1.0625" fill="#8A8A8A"/>
  <circle cx="13.793" cy="8.84277" r="1.0625" fill="#8A8A8A"/>
</svg>