<svg xmlns="http://www.w3.org/2000/svg" width="18" height="16" viewBox="0 0 18 16" fill="none">
<path d="M12.9062 0.501953C11.293 0.501953 9.88047 1.1957 9 2.36836C8.11953 1.1957 6.70703 0.501953 5.09375 0.501953C3.80955 0.503401 2.57837 1.01419 1.6703 1.92225C0.762235 2.83032 0.251447 4.06151 0.25 5.3457C0.25 10.8145 8.35859 15.241 8.70391 15.4238C8.79492 15.4728 8.89665 15.4984 9 15.4984C9.10335 15.4984 9.20508 15.4728 9.29609 15.4238C9.64141 15.241 17.75 10.8145 17.75 5.3457C17.7486 4.06151 17.2378 2.83032 16.3297 1.92225C15.4216 1.01419 14.1904 0.503401 12.9062 0.501953ZM9 14.1582C7.57344 13.327 1.5 9.54024 1.5 5.3457C1.50124 4.39296 1.88026 3.4796 2.55396 2.80591C3.22765 2.13222 4.14101 1.75319 5.09375 1.75195C6.61328 1.75195 7.88906 2.56133 8.42188 3.86133C8.46896 3.97596 8.54907 4.07401 8.65201 4.14301C8.75494 4.21201 8.87607 4.24885 9 4.24885C9.12393 4.24885 9.24506 4.21201 9.34799 4.14301C9.45093 4.07401 9.53104 3.97596 9.57812 3.86133C10.1109 2.55898 11.3867 1.75195 12.9062 1.75195C13.859 1.75319 14.7724 2.13222 15.446 2.80591C16.1197 3.4796 16.4988 4.39296 16.5 5.3457C16.5 9.53399 10.425 13.3262 9 14.1582Z" fill="#8E8E8E"/>
</svg>