<svg width="38" height="38" viewBox="0 0 38 38" fill="none" xmlns="http://www.w3.org/2000/svg">
<g clip-path="url(#clip0_165_843)">
<path d="M19 3.42148C24.0766 3.42148 24.6777 3.44375 26.6742 3.53281C28.5297 3.61445 29.5316 3.92617 30.1996 4.18594C31.0828 4.52734 31.7211 4.94297 32.3816 5.60352C33.0496 6.27148 33.4578 6.90234 33.7992 7.78555C34.059 8.45352 34.3707 9.46289 34.4523 11.3109C34.5414 13.3148 34.5637 13.916 34.5637 18.9852C34.5637 24.0617 34.5414 24.6629 34.4523 26.6594C34.3707 28.5148 34.059 29.5168 33.7992 30.1848C33.4578 31.068 33.0422 31.7063 32.3816 32.3668C31.7137 33.0348 31.0828 33.443 30.1996 33.7844C29.5316 34.0441 28.5223 34.3559 26.6742 34.4375C24.6703 34.5266 24.0691 34.5488 19 34.5488C13.9234 34.5488 13.3223 34.5266 11.3258 34.4375C9.47031 34.3559 8.46836 34.0441 7.80039 33.7844C6.91719 33.443 6.27891 33.0273 5.61836 32.3668C4.95039 31.6988 4.54219 31.068 4.20078 30.1848C3.94102 29.5168 3.6293 28.5074 3.54766 26.6594C3.45859 24.6555 3.43633 24.0543 3.43633 18.9852C3.43633 13.9086 3.45859 13.3074 3.54766 11.3109C3.6293 9.45547 3.94102 8.45352 4.20078 7.78555C4.54219 6.90234 4.95781 6.26406 5.61836 5.60352C6.28633 4.93555 6.91719 4.52734 7.80039 4.18594C8.46836 3.92617 9.47774 3.61445 11.3258 3.53281C13.3223 3.44375 13.9234 3.42148 19 3.42148ZM19 0C13.8418 0 13.1961 0.0222656 11.1699 0.111328C9.15117 0.200391 7.76328 0.526953 6.56094 0.994531C5.30664 1.48438 4.24531 2.13008 3.19141 3.19141C2.13008 4.24531 1.48438 5.30664 0.994531 6.55352C0.526953 7.76328 0.200391 9.14375 0.111328 11.1625C0.0222656 13.1961 0 13.8418 0 19C0 24.1582 0.0222656 24.8039 0.111328 26.8301C0.200391 28.8488 0.526953 30.2367 0.994531 31.4391C1.48438 32.6934 2.13008 33.7547 3.19141 34.8086C4.24531 35.8625 5.30664 36.5156 6.55352 36.998C7.76328 37.4656 9.14375 37.7922 11.1625 37.8812C13.1887 37.9703 13.8344 37.9926 18.9926 37.9926C24.1508 37.9926 24.7965 37.9703 26.8227 37.8812C28.8414 37.7922 30.2293 37.4656 31.4316 36.998C32.6785 36.5156 33.7398 35.8625 34.7938 34.8086C35.8477 33.7547 36.5008 32.6934 36.9832 31.4465C37.4508 30.2367 37.7773 28.8563 37.8664 26.8375C37.9555 24.8113 37.9777 24.1656 37.9777 19.0074C37.9777 13.8492 37.9555 13.2035 37.8664 11.1773C37.7773 9.15859 37.4508 7.7707 36.9832 6.56836C36.5156 5.30664 35.8699 4.24531 34.8086 3.19141C33.7547 2.1375 32.6934 1.48438 31.4465 1.00195C30.2367 0.534375 28.8563 0.207813 26.8375 0.11875C24.8039 0.0222656 24.1582 0 19 0Z" fill="#797979"/>
<path d="M19 9.24023C13.6117 9.24023 9.24023 13.6117 9.24023 19C9.24023 24.3883 13.6117 28.7598 19 28.7598C24.3883 28.7598 28.7598 24.3883 28.7598 19C28.7598 13.6117 24.3883 9.24023 19 9.24023ZM19 25.3309C15.5043 25.3309 12.6691 22.4957 12.6691 19C12.6691 15.5043 15.5043 12.6691 19 12.6691C22.4957 12.6691 25.3309 15.5043 25.3309 19C25.3309 22.4957 22.4957 25.3309 19 25.3309Z" fill="#797979"/>
<path d="M31.4242 8.8542C31.4242 10.1159 30.4 11.1327 29.1457 11.1327C27.884 11.1327 26.8672 10.1085 26.8672 8.8542C26.8672 7.59248 27.8914 6.57568 29.1457 6.57568C30.4 6.57568 31.4242 7.5999 31.4242 8.8542Z" fill="#6B6B6B"/>
</g>
<defs>
<clipPath id="clip0_165_843">
<rect width="38" height="38" fill="white"/>
</clipPath>
</defs>
</svg>
